<svg width="151" height="68" viewBox="0 0 151 68" fill="none" xmlns="http://www.w3.org/2000/svg">
<path d="M41.0119 14.8064C40.9383 14.8291 40.8627 14.8447 40.7861 14.853H40.5661C40.4208 14.8591 40.2766 14.8248 40.1494 14.754C40.0533 14.6939 39.9768 14.6069 39.9294 14.5036C39.8809 14.391 39.8515 14.2709 39.8426 14.1485C39.8426 14.0087 39.8426 13.869 39.8426 13.7234V7.77874C39.6606 7.68255 39.4656 7.61388 39.2637 7.57496C39.0248 7.51785 38.7799 7.49047 38.5344 7.49344C38.3789 7.49425 38.2238 7.50985 38.0713 7.54002C37.9296 7.57305 37.7932 7.62597 37.6661 7.69723C37.5419 7.76275 37.4364 7.85891 37.3593 7.9767C37.2701 8.10272 37.2125 8.24853 37.1914 8.40174C37.1678 8.5539 37.1562 8.7077 37.1567 8.86171V9.69432H39.0611V10.195H37.1567V14.8064H36.5257V9.0422C36.5245 8.84757 36.5361 8.65306 36.5605 8.45996C36.572 8.22874 36.6365 8.00332 36.749 7.80132C36.8615 7.59932 37.0188 7.4262 37.2088 7.29548C37.6061 7.04191 38.0699 6.91413 38.5402 6.92867C38.7672 6.92679 38.994 6.94628 39.2174 6.98689C39.4135 7.02173 39.6069 7.07037 39.7963 7.13245C39.9419 7.18519 40.0832 7.24943 40.2188 7.32459C40.3126 7.3706 40.397 7.43378 40.4677 7.51091V13.7991C40.4444 14.0121 40.4911 14.2269 40.6009 14.4105C40.7147 14.5196 40.8662 14.5802 41.0234 14.5793L41.0119 14.8064Z" fill="#1A171B"/>
<path d="M44.3403 14.9752C43.973 14.9848 43.6086 14.9091 43.2752 14.754C42.9938 14.6193 42.7479 14.4198 42.5574 14.1718C42.3645 13.9223 42.2264 13.6346 42.1522 13.3275C42.0658 12.9989 42.0229 12.6602 42.0248 12.3202C42.025 11.9716 42.0737 11.6247 42.1696 11.2897C42.2613 10.9744 42.4127 10.6798 42.6153 10.4221C42.8152 10.1765 43.0661 9.97774 43.3504 9.83988C43.6729 9.68947 44.0254 9.61576 44.3808 9.62445C44.7457 9.61251 45.1084 9.68627 45.4401 9.83988C45.7187 9.97388 45.961 10.1736 46.1463 10.4221C46.3278 10.6812 46.4611 10.9712 46.5399 11.278C46.622 11.6074 46.6628 11.9457 46.6615 12.2853C46.6624 12.6267 46.6216 12.967 46.5399 13.2984C46.4608 13.609 46.3233 13.9015 46.1347 14.1601C45.9409 14.4048 45.6958 14.6036 45.4169 14.7424C45.0814 14.9047 44.7124 14.9845 44.3403 14.9752ZM44.3403 14.4454C44.6226 14.4548 44.9023 14.3885 45.1507 14.2533C45.3581 14.127 45.5311 13.951 45.6543 13.7409C45.7825 13.5285 45.869 13.2933 45.909 13.048C45.9938 12.5451 45.9938 12.0313 45.909 11.5284C45.8674 11.2863 45.7831 11.0536 45.66 10.8413C45.5401 10.6353 45.3684 10.4647 45.1622 10.3464C44.9124 10.2094 44.6304 10.143 44.3461 10.1543C44.0674 10.1444 43.7913 10.2108 43.5472 10.3464C43.3402 10.4676 43.1654 10.6374 43.0378 10.8413C42.9074 11.0523 42.8153 11.285 42.7658 11.5284C42.7105 11.7768 42.6833 12.0307 42.6847 12.2853C42.6849 12.5411 42.7081 12.7964 42.7542 13.048C42.7968 13.2926 42.8831 13.5273 43.0089 13.7409C43.132 13.951 43.3051 14.127 43.5125 14.2533C43.7656 14.3927 44.052 14.4592 44.3403 14.4454Z" fill="#1A171B"/>
<path d="M51.7843 14.8646L50.6266 10.789L49.4689 14.8646H48.9885L47.4661 9.71763C47.5034 9.67727 47.5517 9.64891 47.605 9.63611C47.651 9.61732 47.7001 9.60744 47.7497 9.607C47.8161 9.59882 47.8835 9.60981 47.944 9.63867C48.0045 9.66753 48.0555 9.71309 48.0912 9.77003C48.1639 9.90853 48.2202 10.0551 48.2591 10.2067L49.2721 13.7991L50.3835 9.72345C50.4186 9.69473 50.4576 9.6712 50.4993 9.65358C50.548 9.63049 50.6018 9.62046 50.6556 9.62447C50.7048 9.62184 50.7539 9.63165 50.7984 9.65301C50.8429 9.67437 50.8813 9.70659 50.9102 9.74674C50.995 9.88483 51.0557 10.0364 51.0897 10.1951L52.039 13.7176L52.9131 10.4804C52.9594 10.3348 52.9941 10.2067 53.0289 10.1019C53.0575 10.0122 53.0923 9.9247 53.133 9.8399C53.1631 9.77672 53.2089 9.72253 53.2662 9.68269C53.329 9.6509 53.3985 9.63491 53.4688 9.63611C53.5162 9.63909 53.563 9.6489 53.6077 9.66522C53.6585 9.68583 53.704 9.71767 53.7408 9.75838L52.2185 14.8938L51.7843 14.8646Z" fill="#1A171B"/>
<path d="M55.2112 12.3785C55.2172 12.6638 55.2581 12.9473 55.3327 13.2227C55.3961 13.4605 55.5042 13.6838 55.6511 13.8806C55.7963 14.0624 55.983 14.2062 56.1952 14.2999C56.4385 14.4032 56.7011 14.4528 56.9651 14.4454C57.1603 14.4477 57.3549 14.4242 57.5439 14.3756C57.6935 14.3357 57.8374 14.277 57.9723 14.2009C58.0797 14.1424 58.179 14.07 58.2675 13.9855C58.3302 13.9298 58.3865 13.8673 58.4354 13.7991C58.4995 13.8698 58.5576 13.9458 58.609 14.0262C58.6445 14.0716 58.6665 14.1261 58.6727 14.1834C58.6612 14.2732 58.6181 14.3558 58.5512 14.4163C58.4449 14.5167 58.3262 14.6028 58.1981 14.6725C58.0138 14.7661 57.8196 14.8384 57.6192 14.8879C57.3848 14.9484 57.1434 14.9778 56.9014 14.9753C56.5745 14.9785 56.2495 14.9253 55.9405 14.8181C55.6507 14.7215 55.3885 14.5557 55.1764 14.3348C54.9492 14.0893 54.7775 13.7973 54.6728 13.4789C54.5491 13.0756 54.4905 12.6549 54.4992 12.2329C54.4927 11.8363 54.5574 11.4419 54.6902 11.0684C54.7995 10.7629 54.9732 10.4848 55.1996 10.2533C55.4092 10.0461 55.6596 9.88544 55.9347 9.78167C56.2054 9.68166 56.4915 9.63042 56.7799 9.63028C57.0947 9.62305 57.4072 9.68671 57.6944 9.8166C57.9375 9.92902 58.1515 10.0964 58.3196 10.3057C58.4785 10.5186 58.5963 10.7595 58.6669 11.016C58.7415 11.2852 58.7785 11.5634 58.7769 11.8428C58.7771 12.0374 58.7655 12.2319 58.7422 12.425L55.2112 12.3785ZM58.1865 11.9068C58.1867 11.6763 58.1654 11.4463 58.1228 11.2198C58.085 11.0121 58.0063 10.8142 57.8913 10.6376C57.7788 10.476 57.6275 10.3457 57.4513 10.2591C57.2371 10.1543 57.0005 10.1043 56.7625 10.1135C56.5569 10.1046 56.3518 10.1412 56.1618 10.2207C55.9718 10.3001 55.8014 10.4206 55.6627 10.5735C55.3634 10.9446 55.2072 11.4118 55.2227 11.8894L58.1865 11.9068Z" fill="#1A171B"/>
<path d="M60.3629 14.8064V9.69431H60.4093C60.5542 9.69379 60.6958 9.73855 60.8145 9.8224C60.8789 9.87895 60.9288 9.95027 60.9601 10.0303C60.9913 10.1104 61.0029 10.1968 60.9939 10.2824C61.0402 10.2183 61.0981 10.1485 61.1676 10.0669C61.2463 9.98237 61.3336 9.90627 61.428 9.83987C61.5367 9.76978 61.6533 9.71309 61.7754 9.67102C61.9101 9.62811 62.0507 9.6065 62.1921 9.60697H62.4237C62.5041 9.61763 62.5835 9.63516 62.661 9.65937C62.7308 9.68337 62.7942 9.72322 62.8462 9.77582C62.8718 9.80173 62.8917 9.83272 62.9046 9.86681C62.9176 9.9009 62.9233 9.93733 62.9215 9.97378C62.9196 10.0618 62.8957 10.1479 62.852 10.2241C62.8139 10.2992 62.7673 10.3695 62.7131 10.4338C62.6376 10.3518 62.5446 10.2881 62.441 10.2474C62.3145 10.1955 62.1782 10.1717 62.0416 10.1776C61.9086 10.1768 61.7768 10.2025 61.6538 10.2533C61.5317 10.2973 61.4181 10.3623 61.3181 10.4454C61.2211 10.5193 61.1403 10.6124 61.0807 10.7191C61.0226 10.8134 60.9925 10.9225 60.9939 11.0335V14.7889L60.3629 14.8064Z" fill="#1A171B"/>
<path d="M66.082 14.8064V9.05387C66.082 8.84426 66.082 8.65212 66.082 8.47163C66.095 8.25412 66.1515 8.04148 66.2481 7.84646C66.3448 7.65144 66.4795 7.47805 66.6444 7.33669C66.8093 7.19533 67.0008 7.08891 67.2075 7.0238C67.4143 6.95869 67.632 6.93624 67.8475 6.9578C68.097 6.95313 68.3455 6.99052 68.5827 7.06842C68.7635 7.12644 68.9322 7.21721 69.0805 7.33625C69.1439 7.38319 69.197 7.44262 69.2368 7.51093C69.2617 7.55757 69.2756 7.60938 69.2773 7.66231C69.2762 7.72424 69.2582 7.78467 69.2252 7.83698L69.0979 8.03494H69.0052C68.8791 7.857 68.715 7.70977 68.5248 7.60409C68.3207 7.50637 68.0966 7.45849 67.8707 7.46435C67.6016 7.45505 67.3358 7.52595 67.1066 7.66813C66.9942 7.7552 66.9012 7.86491 66.8334 7.99024C66.7656 8.11556 66.7246 8.25374 66.713 8.39593C66.7038 8.54912 66.7038 8.70272 66.713 8.85591V9.68851H68.6174V10.1892H66.713V14.8006L66.082 14.8064Z" fill="#1A171B"/>
<path d="M73.8676 14.8064C73.7397 14.8437 73.6072 14.8633 73.474 14.8646C73.2699 14.8708 73.0685 14.8161 72.8952 14.7074C72.8115 14.646 72.7436 14.5654 72.6973 14.4722C72.6509 14.379 72.6275 14.276 72.6289 14.1718C72.4131 14.3914 72.1603 14.5708 71.8822 14.7016C71.5616 14.844 71.2137 14.9136 70.8634 14.9054C70.6862 14.9049 70.5096 14.8854 70.3366 14.8472C70.1515 14.8068 69.9764 14.7296 69.8214 14.6201C69.6508 14.5068 69.513 14.3501 69.422 14.1659C69.3093 13.9344 69.2556 13.6783 69.2657 13.4207C69.2522 13.0885 69.3569 12.7623 69.561 12.5007C69.7607 12.2647 70.0097 12.0758 70.2903 11.9476C70.5882 11.8183 70.9015 11.7283 71.2223 11.6798C71.5232 11.6353 71.8269 11.612 72.1311 11.6099H72.38H72.6173V11.3479C72.6187 11.1853 72.6013 11.0231 72.5652 10.8646C72.53 10.7205 72.4582 10.5881 72.3568 10.4804C72.2544 10.3622 72.1225 10.2738 71.9748 10.2242C71.7699 10.1545 71.5541 10.123 71.338 10.131C71.0313 10.1246 70.7257 10.1718 70.435 10.2707C70.2275 10.3484 70.0325 10.4563 69.8562 10.591H69.7578C69.6715 10.4888 69.6171 10.3632 69.6015 10.23C69.6034 10.1987 69.6116 10.1682 69.6255 10.1402C69.6394 10.1122 69.6588 10.0873 69.6825 10.067C69.7462 10.015 69.814 9.96828 69.8851 9.92723C70.1099 9.81134 70.3495 9.7271 70.5971 9.67686C70.8649 9.61557 71.1386 9.58433 71.4133 9.5837C71.7151 9.57558 72.0161 9.61688 72.3047 9.70598C72.5265 9.76848 72.7268 9.89138 72.8836 10.0611C73.0316 10.2262 73.1352 10.4267 73.1846 10.6434C73.2461 10.9086 73.2753 11.1804 73.2714 11.4527V13.6419C73.268 13.8043 73.2835 13.9665 73.3177 14.1252C73.3389 14.2211 73.3782 14.312 73.4335 14.393C73.4835 14.451 73.5503 14.4917 73.6245 14.5095C73.7054 14.5339 73.789 14.5476 73.8734 14.5502L73.8676 14.8064ZM72.6347 12.0815H72.5015H72.3568C72.0724 12.0816 71.7882 12.0991 71.5059 12.1339C71.2352 12.1605 70.9699 12.2272 70.7187 12.3319C70.4952 12.4175 70.2963 12.5576 70.1398 12.7395C69.9942 12.9246 69.9184 13.1556 69.9256 13.3916C69.9268 13.5152 69.9423 13.6383 69.9719 13.7584C70.0055 13.8756 70.0627 13.9845 70.1398 14.0786C70.2299 14.1774 70.3406 14.255 70.464 14.3057C70.6281 14.3693 70.8033 14.399 70.9792 14.393C71.1952 14.3937 71.4101 14.3603 71.6159 14.294C71.8023 14.2337 71.981 14.1516 72.1484 14.0495C72.2815 13.9705 72.4024 13.8724 72.5073 13.7584C72.5764 13.6939 72.6213 13.6076 72.6347 13.5138V12.0815Z" fill="#1A171B"/>
<path d="M78.6374 10.8239C78.4931 10.6213 78.3051 10.4541 78.0875 10.3348C77.8323 10.2078 77.5501 10.1458 77.2655 10.1543C76.9936 10.1478 76.7239 10.2056 76.4783 10.3232C76.2676 10.4301 76.0851 10.5857 75.9457 10.7773C75.8014 10.9806 75.6972 11.2099 75.6389 11.4527C75.5077 12.0019 75.5077 12.5746 75.6389 13.1237C75.7014 13.3715 75.8073 13.6061 75.9515 13.8166C76.0928 14.0101 76.2771 14.1676 76.4898 14.2766C76.7367 14.3967 77.0088 14.4547 77.2829 14.4454C77.4803 14.4495 77.6767 14.4159 77.8617 14.3464C78.0109 14.2925 78.1528 14.2201 78.2843 14.131C78.4119 14.0402 78.5268 13.9325 78.6258 13.8108L78.7821 13.9738C78.836 14.0262 78.8689 14.0966 78.8747 14.1718C78.8747 14.2533 78.811 14.3523 78.6779 14.4687C78.5036 14.6094 78.3082 14.7214 78.099 14.8006C77.8066 14.9258 77.4906 14.9854 77.1729 14.9753C76.9272 14.9703 76.6827 14.939 76.4435 14.8821C76.1641 14.8115 75.9033 14.6803 75.6794 14.4978C75.43 14.2716 75.2325 13.9934 75.1006 13.6827C74.9167 13.2389 74.8317 12.7599 74.8517 12.2795C74.8461 11.955 74.887 11.6315 74.9732 11.3188C75.0429 11.0671 75.1503 10.8276 75.2916 10.6085C75.4131 10.4171 75.568 10.2494 75.7489 10.1136C75.9079 9.99217 76.0809 9.89052 76.2641 9.81079C76.4278 9.73363 76.6011 9.6788 76.7793 9.64776C76.9264 9.62128 77.0755 9.60764 77.225 9.607C77.5373 9.5968 77.8484 9.65027 78.1396 9.76421C78.3463 9.84349 78.5411 9.95127 78.7184 10.0844C78.7824 10.1331 78.8356 10.1945 78.8747 10.2649C78.9015 10.3108 78.9155 10.3631 78.9152 10.4163C78.9135 10.4844 78.8935 10.5508 78.8573 10.6085L78.7416 10.8239H78.6374Z" fill="#1A171B"/>
<path d="M80.1829 8.15137H80.2813H80.4376C80.4987 8.16312 80.5562 8.18903 80.6055 8.22706C80.6654 8.27211 80.7147 8.32973 80.7502 8.39591C80.7955 8.48809 80.8174 8.5901 80.8139 8.69285V9.71177H82.51V10.2125H80.8139V13.3915C80.7968 13.6615 80.8636 13.93 81.0049 14.1601C81.0728 14.2483 81.1609 14.3188 81.2617 14.3654C81.3625 14.412 81.473 14.4335 81.5838 14.4279C81.7207 14.4304 81.8566 14.4047 81.9832 14.3522C82.2095 14.2751 82.41 14.1359 82.5621 13.9505C82.6363 14.0219 82.7041 14.0999 82.7647 14.1834C82.7913 14.2254 82.8072 14.2734 82.811 14.3231C82.8004 14.3872 82.77 14.4463 82.7241 14.492C82.6537 14.574 82.5694 14.643 82.4752 14.6958C82.3525 14.773 82.2201 14.8337 82.0816 14.8763C81.9137 14.9325 81.7376 14.96 81.5606 14.9578C81.2662 14.9745 80.9737 14.9014 80.7213 14.7482C80.5194 14.6073 80.3706 14.4022 80.2987 14.1659C80.2515 14.0286 80.2223 13.8858 80.2119 13.7409C80.203 13.5799 80.203 13.4186 80.2119 13.2576L80.1829 8.15137Z" fill="#1A171B"/>
<path d="M85.902 14.9752C85.5349 14.9842 85.1705 14.9085 84.8369 14.754C84.5566 14.6176 84.311 14.4185 84.1192 14.1718C83.9307 13.9196 83.7931 13.6328 83.714 13.3275C83.6323 12.9981 83.5915 12.6597 83.5924 12.3202C83.5897 11.9714 83.6385 11.6241 83.7371 11.2897C83.8293 10.9757 83.9785 10.6815 84.177 10.4221C84.3792 10.1763 84.632 9.97766 84.918 9.83988C85.2404 9.68947 85.593 9.61576 85.9483 9.62445C86.3133 9.61251 86.676 9.68627 87.0076 9.83988C87.2846 9.97388 87.525 10.1737 87.7081 10.4221C87.8919 10.6798 88.0254 10.9703 88.1017 11.278C88.1885 11.6066 88.2313 11.9453 88.229 12.2853C88.231 12.6272 88.1881 12.9678 88.1017 13.2984C88.027 13.6096 87.8912 13.9026 87.7023 14.1601C87.5076 14.4064 87.2603 14.6054 86.9787 14.7424C86.6432 14.9047 86.2742 14.9845 85.902 14.9752ZM85.902 14.4454C86.192 14.4579 86.4799 14.3915 86.7356 14.2533C86.943 14.127 87.1161 13.951 87.2392 13.7409C87.3655 13.5281 87.45 13.2929 87.4881 13.048C87.5729 12.5451 87.5729 12.0313 87.4881 11.5284C87.4511 11.2859 87.3686 11.0528 87.245 10.8413C87.1233 10.6367 86.9521 10.4664 86.7472 10.3464C86.4954 10.2089 86.2114 10.1425 85.9252 10.1543C85.6465 10.1444 85.3704 10.2108 85.1264 10.3464C84.9193 10.4676 84.7445 10.6374 84.617 10.8413C84.489 11.0536 84.3971 11.2858 84.3449 11.5284C84.2925 11.7773 84.2654 12.0309 84.2639 12.2853C84.264 12.5411 84.2873 12.7964 84.3333 13.048C84.3779 13.2929 84.4661 13.5277 84.5938 13.7409C84.7169 13.951 84.89 14.127 85.0974 14.2533C85.3433 14.3896 85.6215 14.4561 85.902 14.4454Z" fill="#1A171B"/>
<path d="M89.8324 14.8064V9.69433H89.873C90.0182 9.6918 90.1604 9.73675 90.2782 9.82242C90.3433 9.87869 90.394 9.94979 90.4262 10.0298C90.4585 10.1098 90.4712 10.1964 90.4634 10.2824C90.5149 10.2056 90.573 10.1335 90.637 10.067C90.7131 9.97964 90.8008 9.90324 90.8975 9.83989C91.0041 9.76982 91.1188 9.71312 91.239 9.67104C91.3757 9.62771 91.5183 9.6061 91.6616 9.60699H91.8874C91.9697 9.61766 92.051 9.63518 92.1305 9.65939C92.2003 9.68339 92.2637 9.72323 92.3157 9.77584C92.3651 9.82966 92.3921 9.90054 92.391 9.9738C92.3895 10.0627 92.3635 10.1494 92.3157 10.2242C92.2773 10.2977 92.2327 10.3678 92.1826 10.4338C92.1049 10.3543 92.0125 10.291 91.9105 10.2475C91.7817 10.1962 91.6437 10.1724 91.5053 10.1776C91.3742 10.1768 91.2443 10.2026 91.1233 10.2533C90.9994 10.2974 90.8839 10.3623 90.7818 10.4454C90.6866 10.5195 90.6077 10.6127 90.5502 10.7191C90.4921 10.8134 90.4619 10.9225 90.4634 11.0335V14.7889L89.8324 14.8064Z" fill="#1A171B"/>
<path d="M94.9322 14.8064H94.6254L92.8425 9.74673C92.9351 9.71203 93.0331 9.69428 93.1319 9.69433C93.2063 9.68753 93.2812 9.6994 93.3499 9.72887C93.4186 9.75834 93.4789 9.80449 93.5256 9.86318C93.6166 9.9952 93.6868 10.1405 93.7339 10.294L95.0711 14.294L96.4893 10.2183C96.5342 10.0676 96.6112 9.92852 96.715 9.81078C96.7635 9.76425 96.8207 9.72793 96.8834 9.70393C96.946 9.67994 97.0127 9.66876 97.0797 9.67104C97.1295 9.66223 97.1804 9.66223 97.2302 9.67104L97.3518 9.7118L95.1521 15.8777C95.0827 16.0641 95.0074 16.2329 94.9264 16.4018C94.8443 16.5607 94.7411 16.7076 94.6196 16.8384C94.4982 16.9696 94.3501 17.0728 94.1854 17.1412C94.0007 17.2123 93.8044 17.2478 93.6066 17.246C93.3814 17.2583 93.1567 17.2143 92.9525 17.1179C92.8136 17.0442 92.7441 16.9568 92.7441 16.8559C92.7447 16.7714 92.7688 16.6887 92.8136 16.6172C92.8599 16.5415 92.9062 16.4774 92.9409 16.425C93.0087 16.4924 93.0845 16.5511 93.1667 16.5997C93.3067 16.6879 93.4705 16.7306 93.6355 16.722C93.7449 16.7296 93.8544 16.7108 93.9551 16.6673C94.0558 16.6237 94.1446 16.5567 94.2144 16.4716C94.4037 16.2073 94.5502 15.9145 94.6485 15.6041L94.9322 14.8064Z" fill="#1A171B"/>
<path d="M91.459 28.6521C91.459 28.0792 91.6853 27.5298 92.088 27.1247C92.4908 26.7196 93.037 26.492 93.6066 26.492C94.1761 26.492 94.7224 26.7196 95.1251 27.1247C95.5279 27.5298 95.7541 28.0792 95.7541 28.6521C95.7541 29.225 95.5279 29.7744 95.1251 30.1795C94.7224 30.5846 94.1761 30.8122 93.6066 30.8122C93.037 30.8122 92.4908 30.5846 92.088 30.1795C91.6853 29.7744 91.459 29.225 91.459 28.6521ZM78.348 42.8239V33.5953H71.1528V33.8632H74.6259V58.2824H71.1528V58.556H82.0411V58.2824H78.5332V44.1164C78.5332 38.9927 80.8486 33.1295 84.9469 33.7875V33.4032C80.5708 33.4032 78.6606 37.8457 78.348 42.8239ZM108.448 43.1383C104.078 41.1412 103.302 40.0116 103.302 37.7467C103.302 35.5866 104.535 33.3275 107.679 33.3275C108.818 33.3367 109.919 33.7489 110.787 34.492V33.9447C109.832 33.4109 108.76 33.1248 107.667 33.1121C103.563 33.1121 100.784 35.9127 100.784 39.7962C100.784 43.2897 101.971 45.4032 106.48 47.8253C110.127 49.7118 113.357 50.3581 113.357 53.7001C113.357 57.0422 111.447 58.8239 108.118 58.8239C107.269 58.8077 106.433 58.6111 105.665 58.2468C104.897 57.8826 104.214 57.3589 103.661 56.7103V57.7176C104.964 58.2999 106.556 59.0917 108.118 59.0917C113.27 59.0917 116.321 55.8079 116.321 51.5226C116.35 48.2562 114.972 46.1543 108.454 43.1383H108.448ZM124.378 26.9636L120.465 33.77V53.1645C120.465 57.5313 122.474 59.0917 125.675 59.0917C126.206 59.0903 126.73 58.9801 127.217 58.7679C127.704 58.5557 128.142 58.2458 128.506 57.8573V57.4323C128.261 57.7189 127.961 57.9521 127.624 58.1173C127.286 58.2826 126.918 58.3764 126.543 58.393C124.228 58.393 124.355 55.1557 124.355 53.1528V33.8632H129.687V33.5953H124.355L124.378 26.9636ZM151.006 57.6536V58.0204C150.659 58.3732 150.243 58.6504 149.785 58.8347C149.327 59.019 148.836 59.1065 148.343 59.0917C145.929 59.0917 144.43 57.6361 144.43 53.8515V53.0539C143.787 56.1805 141.738 59.0917 138.323 59.0917C134.723 59.0917 130.798 57.7467 130.798 52.687C130.821 47.1616 135.313 45.9971 139.226 45.2402C140.824 44.9665 143.012 44.6987 144.436 44.4833V44.163C144.436 38.6608 144.754 33.3275 140.06 33.3275C138.884 33.2595 137.719 33.5873 136.749 34.2591V33.7351C137.805 33.3242 138.927 33.113 140.06 33.1121C145.935 33.1121 148.349 36.722 148.349 43.3537V53.8341C148.349 56.262 148.216 58.3057 149.715 58.3057C149.963 58.291 150.206 58.2244 150.427 58.1101C150.648 57.9958 150.843 57.8363 151 57.6419L151.006 57.6536ZM144.424 44.7511C143.099 44.9665 141.049 45.1878 139.411 45.508C135.446 46.3697 134.948 50.3581 134.948 52.623C134.948 56.0757 136.106 58.7715 138.728 58.7715C142.144 58.7715 144.424 54.9403 144.424 50.7365V44.7511ZM69.0805 46.1019C69.0805 53.0015 64.8433 59.0917 58.5106 59.0917C52.178 59.0917 47.8944 52.984 47.8944 46.1019C47.8944 39.2198 52.1316 33.1121 58.5106 33.1121C64.8896 33.1121 69.0805 39.2023 69.0805 46.1019ZM64.8896 46.1019C64.8896 40.8617 63.9287 33.3275 58.5222 33.3275C53.1157 33.3275 52.0969 40.8734 52.0969 46.1019C52.0969 51.3304 53.0868 58.8064 58.5106 58.8064C63.9345 58.8064 64.8896 51.3304 64.8896 46.1019ZM42.951 58.2824H46.4241V58.556H35.5243V58.2824H39.0322V34.1019L26.772 55.4352V55.6914L23.0268 62.2067H22.8763L19.5479 68.0291L19.4206 67.8137L0 33.9971L19.5479 0L19.6811 0.215429L31.3508 20.5298H31.3971V20.6114L39.0264 33.8865V21.0771H35.5243V20.8035H42.951V58.2824ZM19.5479 0.582242L16.4974 5.88064V12.2853V33.8632H22.7895C23.021 23.6332 25.8401 20.3785 30.1004 20.3785C30.3989 20.3806 30.6967 20.4039 30.9919 20.4483L19.5479 0.582242ZM12.5727 34.1368H0.410987L7.85506 47.0859C8.28484 47.2376 8.73673 47.3163 9.19221 47.3188C13.8925 47.3188 12.7348 40.099 12.5727 34.1368ZM11.3745 14.7948L0.410987 33.8632H12.5206V12.8093L11.3745 14.7948ZM19.5479 67.4236L22.7953 61.7758V55.7263V34.1368H16.4974C16.2658 44.3668 13.4468 47.5924 9.19221 47.5924C8.8274 47.589 8.46347 47.5559 8.10396 47.4934L19.5479 67.4236ZM38.7833 33.9971L31.2582 20.9141C30.8933 20.7532 30.4988 20.6718 30.1004 20.6754C25.3828 20.6754 26.5405 27.901 26.7257 33.8632H32.8268V34.1368H26.772V54.8588L38.7833 33.9971ZM95.511 33.5953H88.1422V33.8632H91.6153V58.2824H88.1422V58.556H99.0304V58.2824H95.511V33.5953Z" fill="url(#paint0_linear)"/>
<defs>
<linearGradient id="paint0_linear" x1="19.2006" y1="67.4527" x2="128.62" y2="4.64601" gradientUnits="userSpaceOnUse">
<stop stop-color="#97BF0D"/>
<stop offset="0.37" stop-color="#508B1D"/>
<stop offset="0.71" stop-color="#16612B"/>
<stop offset="0.87" stop-color="#005030"/>
<stop offset="1" stop-color="#007242"/>
</linearGradient>
</defs>
</svg>
