<svg width="16" height="16" viewBox="0 0 16 16" fill="none" xmlns="http://www.w3.org/2000/svg">
<g clip-path="url(#clip0)">
<path fill-rule="evenodd" clip-rule="evenodd" d="M15.1641 8.40399C14.9931 8.30999 14.6421 8.16699 14.1821 8.00099C14.6421 7.83499 14.9921 7.69299 15.1631 7.59899C16.1791 7.04999 16.2841 5.43899 15.3981 4.00099C14.5111 2.56399 12.9691 1.84399 11.9541 2.39199C11.7811 2.48699 11.4741 2.69799 11.0891 2.98899C11.1671 2.53099 11.2081 2.17499 11.2081 1.98899C11.2081 0.888993 9.77105 -0.00100708 8.00005 -0.00100708C6.22905 -0.00100708 4.79005 0.888993 4.79005 1.98899C4.79005 2.17499 4.83305 2.52999 4.91105 2.98699C4.63583 2.77088 4.34763 2.57184 4.04805 2.39099C3.03205 1.84199 1.48805 2.56199 0.603051 3.99999C-0.281949 5.43699 -0.175949 7.04799 0.838051 7.59699C1.01105 7.69199 1.36005 7.83499 1.82305 8.00099C1.36005 8.16799 1.00905 8.31099 0.837051 8.40499C-0.178949 8.95399 -0.283949 10.563 0.602051 12.002C1.48805 13.439 3.03105 14.159 4.04605 13.61C4.21905 13.517 4.52505 13.306 4.91105 13.015C4.83305 13.472 4.79005 13.825 4.79005 14.012C4.79005 15.111 6.22605 16.001 8.00005 16.001C9.77105 16.001 11.2081 15.111 11.2081 14.012C11.2081 13.825 11.1671 13.47 11.0891 13.011C11.4741 13.304 11.7821 13.516 11.9551 13.609C12.9711 14.158 14.5131 13.439 15.3981 12.002C16.2851 10.563 16.1791 8.95299 15.1641 8.40399ZM8.00005 11.047C7.59348 11.0574 7.18893 10.9863 6.81026 10.8379C6.43159 10.6895 6.08646 10.4668 5.79522 10.183C5.50397 9.89909 5.2725 9.55978 5.11446 9.18504C4.95641 8.81029 4.87499 8.4077 4.87499 8.00099C4.87499 7.59429 4.95641 7.19169 5.11446 6.81695C5.2725 6.44221 5.50397 6.10289 5.79522 5.81902C6.08646 5.53514 6.43159 5.31244 6.81026 5.16405C7.18893 5.01566 7.59348 4.94457 8.00005 4.95499C8.80826 4.95473 9.58348 5.27546 10.1553 5.84667C10.727 6.41788 11.0485 7.19279 11.0491 8.00099C11.048 8.80904 10.7263 9.58364 10.1547 10.1547C9.58301 10.7258 8.8081 11.0467 8.00005 11.047Z" fill="#015F38"/>
</g>
<defs>
<clipPath id="clip0">
<rect width="16" height="16" fill="white"/>
</clipPath>
</defs>
</svg>
