<svg width="24" height="24" viewBox="0 0 24 24" fill="none" xmlns="http://www.w3.org/2000/svg">
<path fill-rule="evenodd" clip-rule="evenodd" d="M4.5 19.5C4.69891 19.5 4.88968 19.421 5.03033 19.2803C5.17098 19.1397 5.25 18.9489 5.25 18.75V3.75C5.25 3.55109 5.17098 3.36032 5.03033 3.21967C4.88968 3.07902 4.69891 3 4.5 3C4.30109 3 4.11032 3.07902 3.96967 3.21967C3.82902 3.36032 3.75 3.55109 3.75 3.75V18.75C3.75 18.9489 3.82902 19.1397 3.96967 19.2803C4.11032 19.421 4.30109 19.5 4.5 19.5Z" fill="black"/>
<path fill-rule="evenodd" clip-rule="evenodd" d="M8.03097 7.281C8.10082 7.21133 8.15623 7.12857 8.19404 7.03745C8.23185 6.94633 8.25131 6.84865 8.25131 6.75C8.25131 6.65135 8.23185 6.55367 8.19404 6.46255C8.15623 6.37143 8.10082 6.28867 8.03097 6.219L5.03097 3.219C4.9613 3.14915 4.87854 3.09374 4.78742 3.05593C4.6963 3.01812 4.59862 2.99866 4.49997 2.99866C4.40132 2.99866 4.30364 3.01812 4.21252 3.05593C4.1214 3.09374 4.03864 3.14915 3.96897 3.219L0.968971 6.219C0.899239 6.28873 0.843925 6.37151 0.806186 6.46262C0.768447 6.55373 0.749023 6.65138 0.749023 6.75C0.749023 6.84861 0.768447 6.94626 0.806186 7.03737C0.843925 7.12848 0.899239 7.21127 0.968971 7.281C1.0387 7.35073 1.12149 7.40604 1.2126 7.44378C1.3037 7.48152 1.40135 7.50095 1.49997 7.50095C1.59859 7.50095 1.69624 7.48152 1.78735 7.44378C1.87845 7.40604 1.96124 7.35073 2.03097 7.281L4.49997 4.8105L6.96897 7.281C7.03864 7.35084 7.1214 7.40626 7.21252 7.44407C7.30364 7.48188 7.40132 7.50134 7.49997 7.50134C7.59862 7.50134 7.6963 7.48188 7.78742 7.44407C7.87854 7.40626 7.9613 7.35084 8.03097 7.281ZM10.5 14.25C10.5 14.0511 10.579 13.8603 10.7196 13.7197C10.8603 13.579 11.0511 13.5 11.25 13.5H15.75C15.9489 13.5 16.1396 13.579 16.2803 13.7197C16.421 13.8603 16.5 14.0511 16.5 14.25C16.5 14.4489 16.421 14.6397 16.2803 14.7803C16.1396 14.921 15.9489 15 15.75 15H11.25C11.0511 15 10.8603 14.921 10.7196 14.7803C10.579 14.6397 10.5 14.4489 10.5 14.25ZM10.5 9.75C10.5 9.55109 10.579 9.36032 10.7196 9.21967C10.8603 9.07902 11.0511 9 11.25 9H18.75C18.9489 9 19.1396 9.07902 19.2803 9.21967C19.421 9.36032 19.5 9.55109 19.5 9.75C19.5 9.94891 19.421 10.1397 19.2803 10.2803C19.1396 10.421 18.9489 10.5 18.75 10.5H11.25C11.0511 10.5 10.8603 10.421 10.7196 10.2803C10.579 10.1397 10.5 9.94891 10.5 9.75ZM10.5 5.25C10.5 5.05109 10.579 4.86032 10.7196 4.71967C10.8603 4.57902 11.0511 4.5 11.25 4.5H21.75C21.9489 4.5 22.1396 4.57902 22.2803 4.71967C22.421 4.86032 22.5 5.05109 22.5 5.25C22.5 5.44891 22.421 5.63968 22.2803 5.78033C22.1396 5.92098 21.9489 6 21.75 6H11.25C11.0511 6 10.8603 5.92098 10.7196 5.78033C10.579 5.63968 10.5 5.44891 10.5 5.25ZM10.5 18.75C10.5 18.5511 10.579 18.3603 10.7196 18.2197C10.8603 18.079 11.0511 18 11.25 18H12.75C12.9489 18 13.1396 18.079 13.2803 18.2197C13.421 18.3603 13.5 18.5511 13.5 18.75C13.5 18.9489 13.421 19.1397 13.2803 19.2803C13.1396 19.421 12.9489 19.5 12.75 19.5H11.25C11.0511 19.5 10.8603 19.421 10.7196 19.2803C10.579 19.1397 10.5 18.9489 10.5 18.75Z" fill="black"/>
</svg>
