<svg width="21" height="21" viewBox="0 0 21 21" fill="none" xmlns="http://www.w3.org/2000/svg">
<g clip-path="url(#clip0)">
<path d="M8.26864 16.458L7.43946 16.9555C7.00697 17.2154 6.51279 17.3521 6.01197 17.3521C5.08198 17.3521 4.21948 16.8896 3.70281 16.1155C3.57281 15.9205 3.47281 15.713 3.39613 15.4988C2.91445 16.0246 2.63281 16.7196 2.63281 17.4654C2.63281 19.0738 3.94112 20.3821 5.54947 20.3821C7.15782 20.3821 8.46614 19.0738 8.46614 17.4654C8.46614 17.1179 8.39032 16.7796 8.26864 16.458Z" fill="white" fill-opacity="0.7"/>
<path d="M18.2131 2.91564L12.3799 0.415657C12.2082 0.342338 12.0082 0.392337 11.8907 0.538157L10.224 2.62146C10.1457 2.71978 10.1157 2.84814 10.1423 2.97146C10.169 3.09478 10.2498 3.19814 10.3631 3.25478L16.6573 6.40144C16.834 6.48976 17.0223 6.53476 17.2156 6.53476C17.5364 6.53476 17.8531 6.40644 18.0856 6.18226C18.3306 5.94559 18.4664 5.62645 18.4664 5.28395V3.29896C18.4656 3.13146 18.3665 2.98146 18.2131 2.91564Z" fill="white" fill-opacity="0.7"/>
<path d="M5.13281 17.1913V18.2988C5.13281 18.5288 5.31949 18.7155 5.54949 18.7155C5.77949 18.7155 5.96617 18.5288 5.96617 18.2988V17.3471C5.67699 17.3421 5.40031 17.2813 5.13281 17.1913Z" fill="white" fill-opacity="0.7"/>
<path d="M16.2845 7.14719L9.277 3.64307L5.11534 5.20388C4.67617 5.36806 4.30117 5.68055 4.05953 6.08305L2.32954 8.96636C1.96122 9.58053 1.93204 10.3297 2.25286 10.9697L3.48035 13.4246C3.70453 12.9105 4.06617 12.493 4.53617 12.2238C5.15616 11.868 5.62784 11.5838 5.99034 11.3538C5.97202 11.343 5.95866 11.3238 5.93952 11.3147C5.86452 10.8597 5.64284 10.458 5.43284 10.1638C6.07034 9.88967 6.92283 9.39553 7.35533 8.89136C7.68783 9.08635 8.21115 9.33717 8.86532 9.46553C8.37864 10.068 7.88283 10.8138 7.70283 11.3105C7.55033 11.3797 7.32283 11.498 6.97201 11.7013C6.53201 12.0097 5.89534 12.4038 4.95034 12.9472C4.52367 13.1922 4.22535 13.628 4.10953 14.1738C4.08453 14.2913 4.07453 14.4088 4.07121 14.5263C4.07039 14.5638 4.07371 14.6005 4.07453 14.638C4.07703 14.7197 4.08371 14.8005 4.09703 14.8813C4.10371 14.9213 4.11121 14.9605 4.11953 15.0005C4.13785 15.0805 4.16203 15.1597 4.19035 15.2372C4.20285 15.2714 4.21367 15.3055 4.22785 15.3397C4.27453 15.448 4.32867 15.5547 4.39617 15.6547C4.47535 15.7739 4.57117 15.8755 4.66949 15.9714C4.72949 16.0272 4.79367 16.078 4.85949 16.1255C4.89199 16.1497 4.92531 16.1722 4.95866 16.1947C5.33284 16.4297 5.78284 16.5339 6.22366 16.4922C6.27784 16.4864 6.33284 16.4814 6.38698 16.4705C6.45866 16.4572 6.52948 16.4405 6.59948 16.4189C6.73947 16.3739 6.87865 16.3222 7.01029 16.243L9.8736 14.5255C10.3219 14.4164 12.5494 13.7497 14.2369 11.0197C15.2227 9.42557 15.8861 8.06394 16.2877 7.15058C16.287 7.14805 16.2861 7.14719 16.2845 7.14719Z" fill="white" fill-opacity="0.7"/>
</g>
<defs>
<clipPath id="clip0">
<rect width="20" height="20" fill="white" transform="translate(0.25 0.38208)"/>
</clipPath>
</defs>
</svg>
