<svg width="21" height="13" viewBox="0 0 21 13" fill="none" xmlns="http://www.w3.org/2000/svg">
<path d="M10.25 0.421143C6.42879 0.421143 2.96351 2.51176 0.40649 5.90749C0.197837 6.18569 0.197837 6.57436 0.40649 6.85256C2.96351 10.2524 6.42879 12.343 10.25 12.343C14.0712 12.343 17.5365 10.2524 20.0935 6.85665C20.3022 6.57845 20.3022 6.18978 20.0935 5.91158C17.5365 2.51176 14.0712 0.421143 10.25 0.421143ZM10.5241 10.5797C7.98755 10.7392 5.89284 8.64861 6.05239 6.10796C6.18331 4.01325 7.88118 2.31538 9.97589 2.18446C12.5125 2.02491 14.6072 4.11553 14.4476 6.65618C14.3126 8.7468 12.6147 10.4447 10.5241 10.5797ZM10.3973 8.64043C9.03081 8.72635 7.90163 7.60126 7.99164 6.23479C8.06119 5.10561 8.97763 4.19326 10.1068 4.11962C11.4733 4.0337 12.6025 5.15879 12.5125 6.52526C12.4388 7.65854 11.5224 8.57088 10.3973 8.64043Z" fill="white" fill-opacity="0.7"/>
</svg>
