<svg width="24" height="24" viewBox="0 0 24 24" fill="none" xmlns="http://www.w3.org/2000/svg">
<path d="M18.0001 4.47991C16.4088 2.88861 14.2505 1.99463 12.0001 1.99463C9.74961 1.99463 7.59135 2.88861 6.00005 4.47991C4.40875 6.07121 3.51477 8.22947 3.51477 10.4799C3.51477 12.7303 4.40875 14.8886 6.00005 16.4799L11.2701 21.7599C11.363 21.8536 11.4736 21.928 11.5955 21.9788C11.7173 22.0296 11.848 22.0557 11.9801 22.0557C12.1121 22.0557 12.2428 22.0296 12.3646 21.9788C12.4865 21.928 12.5971 21.8536 12.6901 21.7599L18.0001 16.4299C19.5847 14.8452 20.4749 12.696 20.4749 10.4549C20.4749 8.21386 19.5847 6.06459 18.0001 4.47991ZM16.5701 14.9999L12.0001 19.5899L7.43005 14.9999C6.5272 14.0962 5.91253 12.9452 5.66375 11.6922C5.41497 10.4392 5.54324 9.14066 6.03236 7.96059C6.52147 6.78052 7.34947 5.77196 8.41168 5.06239C9.4739 4.35281 10.7226 3.97409 12.0001 3.97409C13.2775 3.97409 14.5262 4.35281 15.5884 5.06239C16.6506 5.77196 17.4786 6.78052 17.9677 7.96059C18.4569 9.14066 18.5851 10.4392 18.3364 11.6922C18.0876 12.9452 17.4729 14.0962 16.5701 14.9999ZM9.00005 7.40991C8.19277 8.21968 7.73945 9.31648 7.73945 10.4599C7.73945 11.6033 8.19277 12.7001 9.00005 13.5099C9.59981 14.1107 10.3636 14.521 11.1957 14.6893C12.0278 14.8576 12.891 14.7765 13.6771 14.4561C14.4632 14.1356 15.1372 13.5902 15.6145 12.8882C16.0918 12.1861 16.3512 11.3588 16.3601 10.5099C16.3646 9.94311 16.2554 9.38117 16.039 8.8573C15.8225 8.33343 15.5033 7.85827 15.1001 7.45991C14.7037 7.05449 14.2311 6.73145 13.7095 6.50938C13.1878 6.2873 12.6274 6.17059 12.0605 6.16594C11.4935 6.16129 10.9313 6.26881 10.406 6.4823C9.8808 6.69579 9.40297 7.01104 9.00005 7.40991ZM13.6901 12.0899C13.3111 12.4747 12.8103 12.7158 12.2732 12.7722C11.7361 12.8285 11.1961 12.6966 10.7456 12.3988C10.295 12.1011 9.96185 11.6562 9.80306 11.14C9.64427 10.6238 9.6697 10.0685 9.87501 9.56907C10.0803 9.06958 10.4528 8.65693 10.9286 8.40165C11.4045 8.14637 11.9543 8.06432 12.484 8.16953C13.0137 8.27474 13.4904 8.56067 13.8326 8.97844C14.1748 9.39621 14.3612 9.91988 14.3601 10.4599C14.3455 11.0772 14.0865 11.6634 13.6401 12.0899H13.6901Z" fill="black"/>
</svg>
