<svg width="30" height="30" viewBox="0 0 30 30" fill="none" xmlns="http://www.w3.org/2000/svg">
<g clip-path="url(#clip0)">
<path fill-rule="evenodd" clip-rule="evenodd" d="M5.35146 13.3987C5.26437 13.3114 5.16092 13.2421 5.04702 13.1948C4.93312 13.1476 4.81102 13.1232 4.68771 13.1232C4.56439 13.1232 4.44229 13.1476 4.32839 13.1948C4.2145 13.2421 4.11104 13.3114 4.02396 13.3987L0.273958 17.1487C0.0979202 17.3247 -0.000976562 17.5635 -0.000976562 17.8124C-0.000976562 18.0614 0.0979202 18.3001 0.273958 18.4762C0.449995 18.6522 0.688753 18.7511 0.937708 18.7511C1.18666 18.7511 1.42542 18.6522 1.60146 18.4762L4.68771 15.388L7.77396 18.4762C7.95 18.6522 8.18875 18.7511 8.43771 18.7511C8.68666 18.7511 8.92542 18.6522 9.10146 18.4762C9.2775 18.3001 9.37639 18.0614 9.37639 17.8124C9.37639 17.5635 9.2775 17.3247 9.10146 17.1487L5.35146 13.3987ZM29.7265 11.5237C29.6394 11.4364 29.5359 11.3671 29.422 11.3198C29.3081 11.2726 29.186 11.2482 29.0627 11.2482C28.9394 11.2482 28.8173 11.2726 28.7034 11.3198C28.5895 11.3671 28.486 11.4364 28.399 11.5237L25.3127 14.6118L22.2265 11.5237C22.0504 11.3476 21.8117 11.2487 21.5627 11.2487C21.3138 11.2487 21.075 11.3476 20.899 11.5237C20.7229 11.6997 20.624 11.9385 20.624 12.1874C20.624 12.4364 20.7229 12.6751 20.899 12.8512L24.649 16.6012C24.736 16.6885 24.8395 16.7577 24.9534 16.805C25.0673 16.8523 25.1894 16.8766 25.3127 16.8766C25.436 16.8766 25.5581 16.8523 25.672 16.805C25.7859 16.7577 25.8894 16.6885 25.9765 16.6012L29.7265 12.8512C29.8138 12.7641 29.883 12.6606 29.9303 12.5467C29.9776 12.4328 30.0019 12.3107 30.0019 12.1874C30.0019 12.0641 29.9776 11.942 29.9303 11.8281C29.883 11.7142 29.8138 11.6108 29.7265 11.5237Z" fill="#8BB710"/>
<path fill-rule="evenodd" clip-rule="evenodd" d="M15 5.62502C13.4384 5.62382 11.9013 6.0131 10.5286 6.75744C9.15582 7.50178 7.99097 8.57756 7.14 9.88689C7.00008 10.0853 6.78867 10.2216 6.55025 10.2673C6.31183 10.313 6.06499 10.2644 5.86168 10.1317C5.65836 9.99912 5.51441 9.79279 5.46013 9.55618C5.40584 9.31958 5.44545 9.07114 5.57062 8.86315C6.89342 6.83034 8.83773 5.27943 11.1137 4.44162C13.3897 3.60381 15.8755 3.52395 18.2006 4.21395C20.5257 4.90395 22.5655 6.32685 24.0161 8.27057C25.4666 10.2143 26.2502 12.5747 26.25 15C26.25 15.2489 26.1511 15.4876 25.9751 15.6636C25.7991 15.8396 25.5605 15.9385 25.3116 15.9385C25.0627 15.9385 24.824 15.8396 24.648 15.6636C24.472 15.4876 24.3731 15.2489 24.3731 15C24.3731 12.5136 23.3854 10.129 21.6273 8.37089C19.8691 6.61274 17.4845 5.62502 14.9981 5.62502H15ZM4.6875 14.0625C4.93614 14.0625 5.1746 14.1613 5.35041 14.3371C5.52623 14.5129 5.625 14.7514 5.625 15C5.6243 17.0217 6.27712 18.9894 7.4861 20.6097C8.69508 22.23 10.3954 23.4161 12.3336 23.9911C14.2717 24.5661 16.3438 24.4991 18.2408 23.8003C20.1378 23.1014 21.7581 21.8081 22.86 20.1131C22.925 20.0052 23.011 19.9115 23.113 19.8375C23.215 19.7636 23.3308 19.711 23.4536 19.6828C23.5764 19.6546 23.7036 19.6515 23.8276 19.6736C23.9517 19.6957 24.07 19.7425 24.1755 19.8113C24.281 19.8802 24.3715 19.9696 24.4417 20.0742C24.5119 20.1788 24.5603 20.2965 24.584 20.4202C24.6077 20.5439 24.6062 20.6711 24.5797 20.7943C24.5531 20.9174 24.502 21.0339 24.4294 21.1369C23.1066 23.1697 21.1623 24.7206 18.8863 25.5584C16.6103 26.3962 14.1245 26.4761 11.7994 25.7861C9.4743 25.0961 7.43445 23.6732 5.98391 21.7295C4.53336 19.7858 3.74979 17.4253 3.75 15C3.75 14.8767 3.77431 14.7547 3.82154 14.6408C3.86877 14.527 3.938 14.4235 4.02525 14.3364C4.1125 14.2494 4.21607 14.1803 4.33003 14.1333C4.44399 14.0863 4.5661 14.0623 4.68937 14.0625H4.6875Z" fill="#8BB710"/>
</g>
<defs>
<clipPath id="clip0">
<rect width="30" height="30" fill="white"/>
</clipPath>
</defs>
</svg>
