<svg width="24" height="24" viewBox="0 0 24 24" fill="none" xmlns="http://www.w3.org/2000/svg">
<path d="M22.1484 9.65625H16.1484C16.0452 9.65625 15.9609 9.74063 15.9609 9.84375V10.9688C15.9609 11.0719 16.0452 11.1563 16.1484 11.1563H22.1484C22.2515 11.1563 22.3359 11.0719 22.3359 10.9688V9.84375C22.3359 9.74063 22.2515 9.65625 22.1484 9.65625ZM19.0077 12.8438H16.1484C16.0452 12.8438 15.9609 12.9281 15.9609 13.0313V14.1563C15.9609 14.2594 16.0452 14.3438 16.1484 14.3438H19.0077C19.1109 14.3438 19.1952 14.2594 19.1952 14.1563V13.0313C19.1952 12.9281 19.1109 12.8438 19.0077 12.8438ZM11.1866 7.55859H10.1718C10.0265 7.55859 9.9093 7.67578 9.9093 7.82109V13.6336C9.9093 13.718 9.94915 13.7953 10.0171 13.8445L13.507 16.3898C13.6241 16.4742 13.7882 16.4508 13.8726 16.3336L14.4749 15.5109V15.5086C14.5593 15.3914 14.5335 15.2273 14.4163 15.143L11.4468 12.9961V7.82109C11.4491 7.67578 11.3296 7.55859 11.1866 7.55859Z" fill="black"/>
<path d="M18.8625 15.7944H17.5078C17.3766 15.7944 17.2524 15.8623 17.182 15.9748C16.8844 16.4459 16.5375 16.8819 16.1391 17.2803C15.4524 17.967 14.6531 18.5061 13.7649 18.8811C12.8438 19.2701 11.8664 19.467 10.8586 19.467C9.84845 19.467 8.87111 19.2701 7.95236 18.8811C7.06408 18.5061 6.26486 17.967 5.57814 17.2803C4.89142 16.5936 4.35236 15.7944 3.97736 14.9061C3.5883 13.9873 3.39142 13.01 3.39142 11.9998C3.39142 10.9897 3.5883 10.0147 3.97736 9.09359C4.35236 8.20531 4.89142 7.40609 5.57814 6.71937C6.26486 6.03265 7.06408 5.49359 7.95236 5.11859C8.87111 4.72952 9.8508 4.53265 10.8586 4.53265C11.8688 4.53265 12.8461 4.72952 13.7649 5.11859C14.6531 5.49359 15.4524 6.03265 16.1391 6.71937C16.5375 7.11781 16.8844 7.55374 17.182 8.02484C17.2524 8.13734 17.3766 8.20531 17.5078 8.20531H18.8625C19.0242 8.20531 19.1274 8.03655 19.0547 7.89359C17.5266 4.85374 14.4281 2.87796 10.9688 2.83812C5.90392 2.77484 1.69689 6.92093 1.68752 11.9811C1.67814 17.0506 5.78674 21.1639 10.8563 21.1639C14.3602 21.1639 17.5102 19.1811 19.0547 16.1061C19.1274 15.9631 19.0219 15.7944 18.8625 15.7944Z" fill="black"/>
</svg>
