<svg width="23" height="18" viewBox="0 0 23 18" fill="none" xmlns="http://www.w3.org/2000/svg">
<path fill-rule="evenodd" clip-rule="evenodd" d="M8.03097 5.281C8.10082 5.21133 8.15623 5.12857 8.19404 5.03745C8.23185 4.94633 8.25131 4.84865 8.25131 4.75C8.25131 4.65135 8.23185 4.55367 8.19404 4.46255C8.15623 4.37143 8.10082 4.28867 8.03097 4.219L5.03097 1.219C4.9613 1.14915 4.87854 1.09374 4.78742 1.05593C4.6963 1.01812 4.59862 0.998657 4.49997 0.998657C4.40132 0.998657 4.30364 1.01812 4.21252 1.05593C4.1214 1.09374 4.03864 1.14915 3.96897 1.219L0.968971 4.219C0.899239 4.28873 0.843925 4.37151 0.806186 4.46262C0.768447 4.55373 0.749023 4.65138 0.749023 4.75C0.749023 4.84861 0.768447 4.94626 0.806186 5.03737C0.843925 5.12848 0.899239 5.21127 0.968971 5.281C1.0387 5.35073 1.12149 5.40604 1.2126 5.44378C1.3037 5.48152 1.40135 5.50095 1.49997 5.50095C1.59859 5.50095 1.69624 5.48152 1.78735 5.44378C1.87845 5.40604 1.96124 5.35073 2.03097 5.281L4.49997 2.8105L6.96897 5.281C7.03864 5.35084 7.1214 5.40626 7.21252 5.44407C7.30364 5.48188 7.40132 5.50134 7.49997 5.50134C7.59862 5.50134 7.6963 5.48188 7.78742 5.44407C7.87854 5.40626 7.9613 5.35084 8.03097 5.281ZM10.5 12.25C10.5 12.0511 10.579 11.8603 10.7196 11.7197C10.8603 11.579 11.0511 11.5 11.25 11.5H15.75C15.9489 11.5 16.1396 11.579 16.2803 11.7197C16.421 11.8603 16.5 12.0511 16.5 12.25C16.5 12.4489 16.421 12.6397 16.2803 12.7803C16.1396 12.921 15.9489 13 15.75 13H11.25C11.0511 13 10.8603 12.921 10.7196 12.7803C10.579 12.6397 10.5 12.4489 10.5 12.25ZM10.5 7.75C10.5 7.55109 10.579 7.36032 10.7196 7.21967C10.8603 7.07902 11.0511 7 11.25 7H18.75C18.9489 7 19.1396 7.07902 19.2803 7.21967C19.421 7.36032 19.5 7.55109 19.5 7.75C19.5 7.94891 19.421 8.13968 19.2803 8.28033C19.1396 8.42098 18.9489 8.5 18.75 8.5H11.25C11.0511 8.5 10.8603 8.42098 10.7196 8.28033C10.579 8.13968 10.5 7.94891 10.5 7.75ZM10.5 3.25C10.5 3.05109 10.579 2.86032 10.7196 2.71967C10.8603 2.57902 11.0511 2.5 11.25 2.5H21.75C21.9489 2.5 22.1396 2.57902 22.2803 2.71967C22.421 2.86032 22.5 3.05109 22.5 3.25C22.5 3.44891 22.421 3.63968 22.2803 3.78033C22.1396 3.92098 21.9489 4 21.75 4H11.25C11.0511 4 10.8603 3.92098 10.7196 3.78033C10.579 3.63968 10.5 3.44891 10.5 3.25ZM10.5 16.75C10.5 16.5511 10.579 16.3603 10.7196 16.2197C10.8603 16.079 11.0511 16 11.25 16H12.75C12.9489 16 13.1396 16.079 13.2803 16.2197C13.421 16.3603 13.5 16.5511 13.5 16.75C13.5 16.9489 13.421 17.1397 13.2803 17.2803C13.1396 17.421 12.9489 17.5 12.75 17.5H11.25C11.0511 17.5 10.8603 17.421 10.7196 17.2803C10.579 17.1397 10.5 16.9489 10.5 16.75Z" fill="black"/>
</svg>
