<svg width="68" height="68" viewBox="0 0 68 68" fill="none" xmlns="http://www.w3.org/2000/svg">
<path d="M64.8348 29.5141C55.8923 27.6338 46.6075 28.211 37.9668 31.1844C37.7563 30.6803 37.4518 30.2209 37.0695 29.8308C41.6266 17.3953 34.9249 10.9666 34.6321 10.6946C34.4603 10.5351 34.2345 10.4464 34 10.4464C33.7654 10.4464 33.5396 10.5351 33.3678 10.6946C33.075 10.9666 26.3733 17.3953 30.9304 29.8308C30.5481 30.2209 30.2436 30.6803 30.0331 31.1844C21.3925 28.2106 12.1076 27.6334 3.16514 29.5141C2.95515 29.557 2.76641 29.6711 2.63088 29.8371C2.49535 30.0032 2.42134 30.2109 2.42139 30.4252C2.42139 30.6186 2.60573 49.7781 18.5634 51.7172C22.0633 52.1422 25.1201 51.6699 27.6659 50.3094C29.2824 54.8489 33.3385 57.3113 33.524 57.4223C33.668 57.5082 33.8325 57.5536 34.0002 57.5536C34.1679 57.5536 34.3325 57.5082 34.4765 57.4223C34.6624 57.3113 38.7185 54.8489 40.3351 50.3094C42.8798 51.6689 45.9339 52.1427 49.4375 51.7172C65.3952 49.7781 65.5796 30.6186 65.5796 30.4252C65.5796 30.2108 65.5054 30.0029 65.3697 29.8368C65.2339 29.6708 65.0449 29.5568 64.8348 29.5141ZM34 30.3934C34.4819 30.3934 34.953 30.5362 35.3537 30.804C35.7544 31.0717 36.0667 31.4522 36.2512 31.8974C36.4357 32.3426 36.484 32.8325 36.39 33.3052C36.2961 33.7779 36.0641 34.2121 35.7234 34.5529C35.3827 34.8938 34.9486 35.1259 34.476 35.2201C34.0034 35.3142 33.5134 35.2661 33.0681 35.0819C32.6229 34.8976 32.2422 34.5854 31.9743 34.1848C31.7064 33.7842 31.5633 33.3132 31.5631 32.8313C31.5637 32.185 31.8206 31.5654 32.2774 31.1084C32.7342 30.6514 33.3537 30.3942 34 30.3934ZM34 12.7718C35.4428 14.6051 38.5745 19.9267 35.4699 28.7985C34.5217 28.4458 33.4782 28.4458 32.53 28.7985C29.4248 19.9245 32.5587 14.603 34 12.7718ZM49.2128 49.8716C45.6625 50.3025 42.6652 49.7123 40.3043 48.1238C40.1795 48.0399 40.0363 47.9875 39.8869 47.9711C39.7374 47.9546 39.5862 47.9746 39.4462 48.0294C39.3062 48.0842 39.1815 48.1721 39.0829 48.2856C38.9843 48.3991 38.9147 48.5348 38.88 48.6811C38.0252 52.2936 35.1459 54.6768 34 55.5029C32.853 54.6757 29.9747 52.2931 29.1194 48.6811C29.0848 48.5348 29.0152 48.3991 28.9166 48.2856C28.8181 48.1721 28.6935 48.0842 28.5535 48.0294C28.4135 47.9746 28.2624 47.9546 28.1129 47.971C27.9635 47.9875 27.8203 48.0399 27.6956 48.1238C25.3347 49.7176 22.3369 50.3019 18.7871 49.8716C12.8132 49.1454 8.56157 45.6965 6.15023 39.6185C5.11288 36.9167 4.49254 34.0728 4.31051 31.1844C12.7933 29.5294 21.5644 30.1728 29.7149 33.048C29.7697 34.1476 30.245 35.184 31.0426 35.9429C31.8402 36.7017 32.899 37.1249 34 37.1249C35.1009 37.1249 36.1597 36.7017 36.9573 35.9429C37.7549 35.184 38.2302 34.1476 38.285 33.048C46.4353 30.1737 55.2058 29.5302 63.6883 31.1844C63.4748 34.5902 61.8289 48.3384 49.2128 49.8716Z" fill="#8BB710"/>
<path d="M38.6749 37.6545C38.6972 37.8442 39.2646 42.3295 42.5435 44.8163C43.969 45.8856 45.7115 46.4467 47.4931 46.41C48.0764 46.4082 48.6586 46.3613 49.2346 46.2698C58.7078 44.7977 59.0659 34.6853 59.068 34.5823C59.074 34.3403 58.9854 34.1055 58.821 33.9278C58.6567 33.7502 58.4295 33.6436 58.1877 33.6308C51.7163 33.2578 45.2417 34.3044 39.2173 36.6972C39.0368 36.7782 38.8868 36.9147 38.7892 37.0869C38.6916 37.2591 38.6516 37.458 38.6749 37.6545ZM57.1183 35.4477C56.9407 36.7127 56.5813 37.9453 56.0511 39.1075C55.4334 40.5362 54.4533 41.7789 53.208 42.7126C51.9626 43.6463 50.495 44.2387 48.9504 44.4311C46.8418 44.7568 45.0669 44.3918 43.6772 43.3415C41.7073 41.854 40.9248 39.3317 40.6491 38.1215C45.9192 36.1912 51.5092 35.2837 57.1194 35.4477H57.1183Z" fill="#595959"/>
<path d="M28.7814 36.6967C22.7569 34.3046 16.2825 33.2573 9.81102 33.6282C9.56841 33.641 9.34043 33.7482 9.17583 33.9269C9.01123 34.1056 8.92308 34.3416 8.93021 34.5844C8.93021 34.6864 9.29093 44.7987 18.7642 46.2719C19.3402 46.3635 19.9224 46.4104 20.5056 46.4122C22.2872 46.4488 24.0298 45.8878 25.4553 44.8184C28.7341 42.33 29.3015 37.8463 29.3238 37.6566C29.3478 37.4597 29.308 37.2602 29.2104 37.0875C29.1128 36.9148 28.9625 36.7778 28.7814 36.6967ZM24.3226 43.3415C22.9324 44.3918 21.1591 44.7573 19.0495 44.4311C12.5857 43.4265 11.1774 37.7119 10.8725 35.4482C16.4842 35.2868 22.0755 36.1943 27.3481 38.1225C27.0745 39.3327 26.292 41.853 24.3226 43.3415Z" fill="#595959"/>
<path d="M34 45.696C33.7534 45.696 33.517 45.794 33.3426 45.9683C33.1683 46.1427 33.0703 46.3792 33.0703 46.6257V51.654C33.0703 51.9006 33.1683 52.1371 33.3426 52.3114C33.517 52.4858 33.7534 52.5837 34 52.5837C34.2466 52.5837 34.483 52.4858 34.6574 52.3114C34.8317 52.1371 34.9297 51.9006 34.9297 51.654V46.6257C34.9297 46.3792 34.8317 46.1427 34.6574 45.9683C34.483 45.794 34.2466 45.696 34 45.696Z" fill="#595959"/>
<path d="M34 40.9211C33.8779 40.9211 33.757 40.9451 33.6441 40.9918C33.5313 41.0385 33.4288 41.1069 33.3425 41.1933C33.2561 41.2796 33.1876 41.3821 33.1409 41.495C33.0942 41.6078 33.0702 41.7287 33.0703 41.8508V43.5779C33.0703 43.8245 33.1683 44.061 33.3426 44.2353C33.517 44.4097 33.7534 44.5076 34 44.5076C34.2466 44.5076 34.483 44.4097 34.6574 44.2353C34.8317 44.061 34.9297 43.8245 34.9297 43.5779V41.8508C34.9298 41.7287 34.9058 41.6078 34.8591 41.495C34.8124 41.3821 34.7439 41.2796 34.6575 41.1933C34.5712 41.1069 34.4687 41.0385 34.3559 40.9918C34.243 40.9451 34.1221 40.9211 34 40.9211Z" fill="#595959"/>
</svg>
