<svg width="68" height="68" viewBox="0 0 68 68" fill="none" xmlns="http://www.w3.org/2000/svg">
<path d="M7.4375 39.3125H9.5625V41.4375H7.4375V39.3125Z" fill="#595959"/>
<path d="M2.125 43.5625H4.25V45.6875H2.125V43.5625Z" fill="#595959"/>
<path d="M6.375 12.75H19.125V14.875H6.375V12.75Z" fill="#595959"/>
<path d="M2.125 12.75H4.25V14.875H2.125V12.75Z" fill="#595959"/>
<path d="M8.5 17H10.625V19.125H8.5V17Z" fill="#595959"/>
<path d="M59.1101 27.8247C62.1456 31.7592 63.75 36.466 63.75 41.4375C63.75 53.7402 53.7412 63.75 41.4375 63.75C30.3323 63.75 20.8293 55.4657 19.3301 44.4816C19.2589 43.9545 18.8094 43.5625 18.2782 43.5625H6.375V45.6875H17.3687C19.4002 57.2602 29.5864 65.875 41.4375 65.875C54.9121 65.875 65.875 54.9132 65.875 41.4375C65.875 35.9922 64.1176 30.8348 60.792 26.5253L59.1101 27.8247Z" fill="#595959"/>
<path d="M22.3125 41.4375C22.3125 51.9828 30.8922 60.5625 41.4375 60.5625C51.9828 60.5625 60.5625 51.9828 60.5625 41.4375C60.5625 33.5282 55.7356 26.724 48.8729 23.817L52.8137 19.8762C53.0134 19.6775 53.125 19.4076 53.125 19.125V3.1875H53.1154C53.1154 3.05044 53.0995 2.91231 53.0443 2.78056C52.8796 2.38319 52.4917 2.125 52.0625 2.125H30.8125C30.5309 2.125 30.26 2.23656 30.0613 2.43631L25.8124 6.68525C25.619 6.87756 25.5 7.14319 25.5 7.4375V17H12.75V19.125H25.5V22.9224C20.6667 27.0863 17.6418 32.9832 17.0914 39.3125H11.6875V41.4375H18.0859C18.6543 41.4375 19.1218 40.9902 19.1473 40.4228C19.4236 34.2486 22.2817 28.4463 26.996 24.4375H32.7154C26.5487 27.6154 22.3125 34.0351 22.3125 41.4375ZM48.875 20.8101V7.87738L51 5.75238V18.6851L48.875 20.8101ZM47.3726 6.375H39.7524L41.8774 4.25H49.4976L47.3726 6.375ZM31.2524 4.25H38.8726L36.7476 6.375H29.1274L31.2524 4.25ZM27.625 22.3125V8.5H36.125V13.8125H38.25V8.5H46.75V22.3125H27.625ZM32.0386 27.2839L34.136 30.9156L35.9762 29.8531L33.8842 26.2289C35.8626 25.2418 38.0545 24.6351 40.375 24.4906V28.6875H42.5V24.4917C44.8205 24.6362 47.0124 25.2439 48.9908 26.2299L46.8934 29.8616L48.7337 30.9241L50.8353 27.2839C52.7181 28.5388 54.3363 30.1559 55.59 32.0386L51.9488 34.1403L53.0113 35.9805L56.644 33.8831C57.63 35.8615 58.2378 38.0534 58.3823 40.3739H54.1875V42.4989H58.3833C58.2388 44.8194 57.6311 47.0114 56.6451 48.9898L53.0124 46.8924L51.9499 48.7326L55.5911 50.8343C54.3363 52.717 52.7191 54.3352 50.8364 55.5889L48.7347 51.9488L46.8945 53.0113L48.9919 56.6429C47.0135 57.6289 44.8226 58.2367 42.5021 58.3812V54.1875H40.3771V58.3833C38.0566 58.2388 35.8647 57.6311 33.8863 56.6451L35.9784 53.0209L34.1381 51.9584L32.0408 55.59C30.158 54.3363 28.5398 52.7181 27.2861 50.8353L30.9272 48.7337L29.8647 46.8934L26.2321 48.9908C25.2461 47.0124 24.6383 44.8205 24.4938 42.5H28.6875V40.375H24.4917C24.6362 38.0545 25.2439 35.8626 26.2299 33.8842L29.8626 35.9816L30.9251 34.1413L27.2839 32.0397C28.5388 30.1569 30.1569 28.5388 32.0386 27.2839Z" fill="#8BB710"/>
<path d="M41.4375 45.6875C43.7814 45.6875 45.6875 43.7814 45.6875 41.4375C45.6875 40.6512 45.4591 39.9245 45.0851 39.2923L49.6262 34.7512L48.1238 33.2488L43.5837 37.7899C42.9505 37.4159 42.2237 37.1875 41.4375 37.1875C39.0936 37.1875 37.1875 39.0936 37.1875 41.4375C37.1875 43.7814 39.0936 45.6875 41.4375 45.6875ZM41.4375 39.3125C42.6094 39.3125 43.5625 40.2656 43.5625 41.4375C43.5625 42.6094 42.6094 43.5625 41.4375 43.5625C40.2656 43.5625 39.3125 42.6094 39.3125 41.4375C39.3125 40.2656 40.2656 39.3125 41.4375 39.3125Z" fill="#8BB710"/>
<path d="M55.5531 24.1297L57.0557 22.6271L59.1804 24.7517L57.6778 26.2544L55.5531 24.1297Z" fill="#595959"/>
</svg>
