<svg width="58" height="58" viewBox="0 0 58 58" fill="none" xmlns="http://www.w3.org/2000/svg">
<path d="M57.922 43.1976C57.61 42.2473 55.7739 37.4957 50.058 36.5066C52.6172 31.3005 49.8517 27.0235 49.2661 26.2126C49.0655 25.9182 48.7343 25.7314 48.3711 25.7182C48.1275 25.7094 42.4355 25.5676 39.5024 31.1296C39.0463 30.6863 38.5811 30.3074 38.1129 29.9845L52.0925 9.75684C52.4482 9.2422 52.3193 8.53668 51.8047 8.18098C51.2898 7.82516 50.5846 7.95419 50.2288 8.46883L36.0978 28.915C34.5702 28.3231 33.1082 28.2079 31.9341 28.2702C32.4871 27.0008 32.6269 26.0173 32.6395 25.9206C32.641 25.9101 32.6429 25.8936 32.6441 25.8832C32.6815 25.528 32.5491 25.18 32.2943 24.9401C32.0943 24.7414 31.6488 24.3279 30.9889 23.8759C33.3542 19.2455 36.5108 15.1198 40.3831 11.6012C40.8461 11.1805 40.8805 10.4641 40.4596 10.0011C40.0388 9.53798 39.3226 9.50366 38.8595 9.9245C34.7964 13.6165 31.4818 17.9439 28.9945 22.8001C27.2743 22.0989 24.9738 21.7058 22.25 22.5476C22.1673 16.7469 17.7616 14.1914 16.8718 13.7346C16.5593 13.5634 16.1796 13.5474 15.8497 13.7005C15.8187 13.7149 15.6899 13.7762 15.4915 13.8882L11.0546 9.45132C10.6123 9.00895 9.8953 9.00895 9.4526 9.45132C9.01023 9.89368 9.01023 10.6109 9.4526 11.0532L13.6438 15.2445C12.1552 16.6112 10.4545 18.9536 10.4036 22.548C10.2159 22.4899 10.0303 22.4383 9.8467 22.3917C4.96132 16.9518 2.27099 9.92994 2.27099 2.60967C2.27099 2.50409 2.27167 2.39738 2.27292 2.28976C11.6764 2.67379 20.3498 7.50197 25.6415 15.3564C25.991 15.8753 26.6952 16.0125 27.2138 15.6629C27.7327 15.3133 27.8699 14.6095 27.5205 14.0905C21.6027 5.3068 11.7553 0.0393088 1.17873 0H1.17442C0.570178 0 0.0717389 0.474877 0.0429654 1.07901C0.01827 1.60112 0.0056957 2.1161 0.0056957 2.60978C0.0056957 9.70077 2.35187 16.5312 6.65375 22.0955C3.18291 22.343 0.894164 24.4077 0.358908 24.9395C0.0996062 25.1838 -0.0331599 25.54 0.0105668 25.9008C0.0399068 26.1422 0.790851 31.7884 6.74482 33.8154C3.39327 38.5598 5.45806 43.2221 5.90971 44.1153C6.06196 44.4374 6.35978 44.6738 6.71639 44.7437C6.78832 44.7577 7.34635 44.861 8.19438 44.861C10.1628 44.861 13.6926 44.3041 16.3257 40.7831C20.0935 45.8217 25.6967 44.7903 25.9351 44.7437C26.181 44.6955 26.3974 44.5673 26.5588 44.3875C25.7842 46.1894 25.7099 47.7912 25.7082 48.3067V48.3076C25.6975 48.6637 25.8558 49.0087 26.1418 49.2328C26.2788 49.3401 28.6325 51.1423 32.0282 51.142C33.3792 51.1419 34.8955 50.8565 36.502 50.0655C37.5721 56.2651 43.0327 57.8898 43.2666 57.9565C43.3691 57.9857 43.4735 57.9999 43.577 57.9999C43.8267 57.9999 44.071 57.9172 44.2702 57.7631C45.0779 57.1723 49.0339 53.954 48.2018 48.2062C48.7363 48.2832 49.2477 48.3183 49.7386 48.3183C54.9107 48.3179 57.6603 44.4088 57.7862 44.2254C57.7965 44.2103 57.8075 44.1936 57.8164 44.1795C58.0015 43.883 58.0376 43.5206 57.922 43.1976ZM40.9017 33.6269C40.904 33.6199 40.9051 33.6127 40.9073 33.6056C40.9097 33.5984 40.9133 33.5919 40.9156 33.5847C41.0528 33.1553 41.2308 32.7248 41.4444 32.3053C43.2418 28.777 46.4447 28.1243 47.7338 28.0066C48.4446 29.2047 49.7369 32.1486 47.965 35.6271C47.8347 35.8829 47.692 36.129 47.5407 36.3658C44.5427 36.5591 42.4485 38.036 41.2701 39.1608C40.7222 37.9561 40.169 35.9645 40.9017 33.6269ZM30.6991 30.7127C32.0586 30.407 35.2581 30.0878 38.018 32.8477C38.2213 33.0508 38.4115 33.2629 38.59 33.48C37.8474 36.39 38.6054 38.8387 39.3108 40.3073C37.9957 40.4561 35.9311 40.3666 33.9345 38.9476C33.9281 38.9431 33.9214 38.9396 33.9151 38.9353C33.9103 38.9318 33.9063 38.9273 33.9014 38.9239C33.5335 38.6596 33.1776 38.3565 32.844 38.0229C30.0439 35.2232 30.4127 31.9753 30.6991 30.7127ZM21.4916 25.2923C21.4987 25.2888 21.5062 25.2866 21.5132 25.283C21.9143 25.0764 22.3442 24.898 22.7913 24.7526C26.5039 23.5465 29.209 25.2826 30.2815 26.172C29.9621 27.4309 28.8147 30.4901 25.0527 31.7123C24.7802 31.8008 24.5056 31.8738 24.2316 31.9343C21.9771 29.952 19.4529 29.5146 17.8239 29.4758C18.2907 28.2368 19.3095 26.4338 21.4731 25.3032C21.4796 25.2998 21.4853 25.2958 21.4916 25.2923ZM2.37056 26.1725C3.44278 25.2831 6.14862 23.5465 9.86109 24.7527C10.1347 24.8417 10.4007 24.9443 10.6585 25.0569C11.3178 27.9852 13.1017 29.822 14.3967 30.8104C13.2909 31.5384 11.4067 32.3986 8.99131 32.0415C8.98361 32.0404 8.97613 32.0403 8.96843 32.0392C8.96254 32.0382 8.95699 32.0362 8.95099 32.0353C8.50307 31.9669 8.04847 31.8582 7.59976 31.7123C3.83405 30.489 2.68855 27.4277 2.37056 26.1725ZM15.3358 38.0913C15.3315 38.0999 15.3284 38.1089 15.3243 38.1176C15.321 38.1238 15.3167 38.1294 15.3136 38.1357C15.1101 38.5407 14.8661 38.9397 14.5886 39.3218C12.261 42.5255 8.99483 42.6682 7.70375 42.5833C7.18923 41.2887 6.3736 38.1788 8.66835 35.0204C8.83952 34.7847 9.02201 34.5605 9.21176 34.3472C9.52408 34.3761 9.8296 34.3915 10.1265 34.3915C12.6684 34.3915 14.6356 33.3992 15.8352 32.5704C16.1858 33.8472 16.4216 35.9049 15.3358 38.0913ZM15.6253 28.8981C14.5913 28.0713 13.1913 26.5452 12.7846 24.1381C12.7833 24.1306 12.7812 24.1236 12.7797 24.1162C12.7787 24.1088 12.7789 24.1016 12.7776 24.0942C12.7048 23.6493 12.668 23.185 12.668 22.7141C12.668 19.1915 14.6916 17.1928 15.9097 16.3083C15.9644 16.276 16.017 16.2392 16.0668 16.1969C16.1576 16.1343 16.2434 16.0778 16.321 16.0289C17.4982 16.7738 19.986 18.8103 19.986 22.7142C19.986 23.0011 19.9706 23.2848 19.9435 23.5638C17.3618 25.0953 16.1656 27.3608 15.6253 28.8981ZM24.9485 42.5808C23.6586 42.6612 20.3794 42.5104 18.0629 39.3219C17.893 39.0879 17.7373 38.847 17.5942 38.603C18.7846 35.8452 18.4204 33.3075 17.9538 31.7456C19.2702 31.8064 21.2868 32.2155 23.0252 33.9036C23.0421 33.9228 23.0574 33.9429 23.0757 33.9611C23.3995 34.2809 23.7048 34.6372 23.9831 35.0204C26.2763 38.1767 25.463 41.2847 24.9485 42.5808ZM25.9068 33.8158C26.7972 33.5126 27.5708 33.1259 28.2438 32.6879C28.2785 34.6457 28.8736 37.1911 31.1275 39.5085C29.1367 40.5567 27.8758 41.9628 27.0775 43.3504C27.7389 41.6336 28.6873 37.7529 25.9068 33.8158ZM36.8416 47.218C36.8353 47.2227 36.8298 47.2281 36.8236 47.2328C36.8164 47.2379 36.8089 47.2423 36.8017 47.2475C36.4366 47.516 36.0382 47.7608 35.6174 47.9753C32.0892 49.7736 29.1144 48.4189 28.0022 47.7563C28.1315 46.3691 28.8164 43.2278 32.2945 41.4553C32.5542 41.3229 32.8186 41.2061 33.0844 41.1021C34.9684 42.2924 36.8656 42.6201 38.3785 42.6201C38.903 42.6201 39.3808 42.5808 39.7963 42.5249C39.5314 43.8217 38.8082 45.7577 36.8416 47.218ZM43.369 55.5818C42.1835 55.0678 39.3299 53.445 38.713 49.5522C38.6678 49.2669 38.6384 48.9819 38.6216 48.6992C40.9341 46.7822 41.7616 44.3559 42.0547 42.7523C43.2 43.4041 44.8113 44.6839 45.5941 46.977C45.6004 47.0018 45.605 47.0267 45.6131 47.0513C45.7563 47.4828 45.8665 47.9388 45.9407 48.4071C46.5512 52.2599 44.4161 54.6604 43.369 55.5818ZM48.3954 45.9448C48.1121 45.8999 47.8338 45.8402 47.5619 45.7697C46.4527 42.9801 44.4027 41.4449 42.969 40.6712C43.9472 39.7791 45.6736 38.6345 48.1152 38.6091C48.1227 38.609 48.1298 38.608 48.1372 38.6078C48.1449 38.6079 48.1522 38.6093 48.1599 38.6093C48.6096 38.6077 49.0749 38.6433 49.5396 38.7169C53.395 39.3272 55.0176 42.1022 55.5693 43.3816C54.7134 44.3583 52.3029 46.5629 48.3954 45.9448Z" fill="#8BB710"/>
<path d="M43.6959 7.4587C43.3198 6.95879 42.6098 6.85853 42.1096 7.23474L42.0445 7.28402C41.5453 7.66102 41.4461 8.3713 41.8231 8.87053C42.0459 9.16551 42.3848 9.32082 42.7278 9.32082C42.9656 9.32082 43.2053 9.24628 43.4097 9.09188L43.472 9.04487C43.9718 8.66866 44.0721 7.95861 43.6959 7.4587Z" fill="#595959"/>
<path d="M57.802 1.02906C57.7707 0.691364 57.5896 0.38539 57.3085 0.19553C57.0277 0.00544365 56.6762 -0.0485917 56.3512 0.0481509C52.5412 1.18165 48.8907 2.81993 45.5008 4.91745C44.9689 5.24665 44.8044 5.94469 45.1336 6.47677C45.4628 7.00874 46.1608 7.17323 46.6929 6.84403C49.5117 5.09983 52.5203 3.68993 55.6538 2.64366C55.7065 3.51797 55.7331 4.39522 55.7331 5.26477C55.7331 11.5706 54.3989 17.6453 51.7674 23.32C51.5042 23.8875 51.7509 24.561 52.3185 24.8241C52.4728 24.8956 52.6348 24.9295 52.7943 24.9295C53.2218 24.9295 53.631 24.6862 53.8226 24.273C56.5936 18.2975 57.9985 11.9022 57.9985 5.26466C57.9985 3.85827 57.9324 2.43318 57.802 1.02906Z" fill="#595959"/>
<path d="M8.05185 6.4498C7.84126 6.2391 7.54899 6.11789 7.25117 6.11789C6.95324 6.11789 6.66098 6.2391 6.45038 6.4498C6.23979 6.66051 6.11847 6.95277 6.11847 7.25059C6.11847 7.54841 6.23957 7.84079 6.45038 8.05138C6.6612 8.26208 6.95336 8.38329 7.25117 8.38329C7.5491 8.38329 7.84137 8.26208 8.05185 8.05138C8.26255 7.84067 8.38388 7.54841 8.38388 7.25059C8.38388 6.95277 8.26255 6.66051 8.05185 6.4498Z" fill="#595959"/>
</svg>
