<svg width="75" height="76" viewBox="0 0 75 76" fill="none" xmlns="http://www.w3.org/2000/svg">
<g clip-path="url(#clip0)">
<path d="M34.5951 23.9277C32.2961 24.4119 30.8196 26.6763 31.3038 28.9753C31.788 31.2744 34.0524 32.7508 36.3514 32.2666C38.6505 31.7824 40.1269 29.5181 39.6426 27.219C39.1584 24.92 36.8941 23.4435 34.5951 23.9277ZM35.9695 30.453C34.6704 30.7266 33.391 29.8924 33.1174 28.5933C32.8438 27.2943 33.6781 26.0149 34.9771 25.7413C36.2761 25.4677 37.5555 26.302 37.829 27.601C38.1026 28.9 37.2684 30.1795 35.9695 30.453Z" fill="#595959"/>
<path d="M50.8375 17.7165C47.1652 18.49 46.249 23.4691 49.3781 25.5095C50.3382 26.1355 51.4846 26.3501 52.6061 26.1139C54.8933 25.6322 56.4017 23.3153 55.9206 21.031C55.4384 18.7416 53.1244 17.2349 50.8375 17.7165ZM52.2242 24.3004C50.1391 24.7396 48.5205 22.3624 49.6801 20.584C50.0357 20.0386 50.5824 19.6643 51.2195 19.5302C52.5191 19.2564 53.8336 20.1151 54.107 21.4129C54.3809 22.7137 53.5237 24.0267 52.2242 24.3004Z" fill="#595959"/>
<path d="M17.2272 24.7953C14.9387 25.2773 13.4312 27.5919 13.9126 29.8783C14.3948 32.1682 16.708 33.6745 18.9957 33.1928C21.287 32.7102 22.7921 30.3987 22.3101 28.1099C21.8281 25.821 19.5138 24.3139 17.2272 24.7953ZM18.6137 31.3791C17.3137 31.6529 15.9998 30.7951 15.7261 29.4966C15.593 28.8645 15.7422 28.2071 16.088 27.6751C16.4302 27.1485 16.9648 26.7446 17.6089 26.609C18.9094 26.3351 20.2231 27.1942 20.4964 28.4916C20.7692 29.7865 19.9059 31.1069 18.6137 31.3791Z" fill="#595959"/>
<path d="M26.082 12.9044C24.089 13.3242 22.8092 15.2872 23.2289 17.2801C23.6487 19.2732 25.6115 20.5531 27.6046 20.1334C29.5976 19.7136 30.8776 17.7506 30.4578 15.7576C30.0381 13.7647 28.0751 12.4847 26.082 12.9044ZM27.2226 18.3199C26.2297 18.529 25.2517 17.8912 25.0425 16.8982C24.8334 15.9052 25.4712 14.9273 26.464 14.7182C27.4571 14.509 28.4351 15.1468 28.6442 16.1397C28.8534 17.1327 28.2156 18.1107 27.2226 18.3199Z" fill="#8BB710"/>
<path d="M29.9865 42.1761C29.4857 42.2815 29.1652 42.773 29.2707 43.2738L29.5792 44.7386C29.6847 45.2394 30.1762 45.5599 30.677 45.4544C31.1778 45.349 31.4983 44.8573 31.3928 44.3567L31.0843 42.8919C30.9788 42.3911 30.4873 42.0706 29.9865 42.1761Z" fill="#595959"/>
<path d="M46.1732 38.767C45.6724 38.8725 45.3519 39.364 45.4573 39.8648L45.7658 41.3296C45.8713 41.8304 46.3628 42.1509 46.8636 42.0454C47.3644 41.9399 47.6849 41.4483 47.5795 40.9476L47.2709 39.4828C47.1655 38.982 46.674 38.6615 46.1732 38.767Z" fill="#595959"/>
<path d="M41.0084 41.5119C40.562 41.2617 39.9972 41.4208 39.7469 41.8672C39.505 42.299 39.0698 42.6091 38.553 42.718C38.0361 42.8268 37.5128 42.7186 37.1173 42.4211C36.7083 42.1134 36.1274 42.1957 35.8196 42.6046C35.5119 43.0136 35.5941 43.5946 36.0032 43.9023C36.8263 44.5214 37.8948 44.7508 38.935 44.5317C39.9752 44.3126 40.8605 43.6717 41.3638 42.7734C41.614 42.327 41.4549 41.7622 41.0084 41.5119Z" fill="#595959"/>
<path d="M60.1135 19.0081C60.4157 17.172 59.8754 15.3828 58.5864 14.0192C57.1419 12.4915 55.0036 11.8039 53.0056 12.2247C52.2938 12.3746 51.6204 12.6559 50.9966 13.0635C49.9179 12.5092 48.7266 12.2965 47.554 12.4496C47.1838 11.319 46.4319 10.3793 45.3848 9.75369C45.3642 8.35656 44.7866 7.05894 43.7496 6.12171C42.5216 5.01182 40.8395 4.54901 39.25 4.88377C38.4253 5.05747 37.6621 5.44233 37.0123 6.00801C36.1896 5.75259 35.3362 5.70821 34.5116 5.88188C33.1642 6.16566 32.0011 6.99222 31.2672 8.13675C30.1258 7.38289 28.7273 7.09998 27.3931 7.38099C26.5684 7.55468 25.8052 7.93955 25.1553 8.50525C24.3325 8.24973 23.4789 8.20538 22.6542 8.37907C21.0646 8.71385 19.712 9.81571 19.0359 11.3266C18.4651 12.6023 18.46 14.0229 19.0046 15.3098C18.2988 16.3046 17.9898 17.4676 18.107 18.6515C16.9724 18.9844 15.9679 19.6595 15.2045 20.6018C14.4693 20.4804 13.7396 20.4946 13.0279 20.6445C11.0297 21.0653 9.35023 22.557 8.64468 24.5375C8.01512 26.3051 8.24247 28.1603 9.25971 29.7186C8.25928 31.6641 8.39201 33.9298 9.651 35.769C10.2735 36.6783 11.1052 37.3763 12.0448 37.8235C13.2972 40.2796 14.738 42.5649 16.3338 44.6169C16.6481 45.0209 17.2305 45.0936 17.6343 44.7794C18.0383 44.4653 18.1111 43.883 17.7969 43.479C16.5831 41.9183 15.4609 40.2151 14.4485 38.3984C14.8794 38.4049 15.3134 38.3617 15.7462 38.2708C15.7488 38.2703 15.9809 38.2186 16.0929 38.1882C16.1016 38.1969 16.1108 38.2048 16.1195 38.2134C16.9074 38.9971 17.9072 39.5597 18.9941 39.7992C22.2783 40.5223 25.6524 38.293 26.1879 34.9663C26.223 34.7482 26.2474 34.5271 26.2589 34.3065C26.748 34.0598 27.2069 33.7463 27.6114 33.3768C27.6119 33.3909 27.6131 33.405 27.6137 33.4189C27.6502 34.2386 27.8572 35.0511 28.2251 35.7849C28.9908 37.3125 30.4437 38.4317 32.0904 38.8577C33.9489 39.3385 35.995 38.8398 37.4312 37.5658C37.4412 37.5569 37.4518 37.549 37.4618 37.54C37.4745 37.5442 37.4874 37.5473 37.5001 37.5513C37.5876 37.5793 37.6755 37.605 37.7635 37.6289C38.5517 37.8431 39.3886 37.8975 40.1964 37.7699C42.9035 37.3426 45.0672 34.9529 45.2059 32.2128C45.206 32.2103 45.2062 32.2078 45.2063 32.2053C45.2458 31.404 45.1147 30.6019 44.8317 29.8516C44.8199 29.8202 44.8086 29.7885 44.7962 29.7574C44.8251 29.7671 44.8551 29.7743 44.8842 29.7837C45.3771 29.9417 45.8919 30.0359 46.4088 30.0626C46.4706 30.1854 46.6932 30.5659 46.7385 30.6356C47.9876 32.5652 50.2051 33.5847 52.5646 33.2461C54.5748 32.9576 56.3473 31.6701 57.1594 29.7951C57.1996 29.7023 57.2405 29.6089 57.2767 29.5145C57.3947 29.4966 57.5119 29.4746 57.6287 29.45C58.0617 29.3585 58.4761 29.2227 58.8679 29.0429C58.0989 37.3879 55.1888 42.589 52.9911 45.4088C52.9288 45.3292 52.8632 45.2516 52.7925 45.1775C51.9135 44.2545 50.5343 44.066 49.3347 44.3187C47.1285 44.7833 44.5897 46.6137 42.3054 49.3706C42.2965 49.3813 42.2877 49.3915 42.2788 49.4022C42.274 49.4015 42.2692 49.4015 42.2644 49.4009C41.8361 49.3475 41.3969 49.3678 40.9747 49.4567L39.0532 49.8614C38.6305 49.9505 38.2215 50.1102 37.8503 50.3308C37.8462 50.3332 37.8421 50.3351 37.838 50.3375C37.8257 50.3312 37.8134 50.3255 37.8011 50.3193C34.5989 48.718 31.5375 48.0671 29.3313 48.5318C28.0195 48.8081 26.7683 49.6525 26.4238 51.0077C24.2524 49.8513 22.1835 48.2743 20.2582 46.3062C19.9003 45.9404 19.3138 45.9339 18.9477 46.2918C18.5819 46.6496 18.5754 47.2364 18.9333 47.6022C21.2705 49.9913 23.8171 51.846 26.5085 53.1231C26.8199 54.224 27.4745 55.3051 28.1483 56.2052C27.7073 58.111 27.5382 60.4949 28.868 61.8909C29.68 62.7433 30.9081 63.0483 32.3262 62.7498C32.9185 62.625 33.5349 62.4014 34.1638 62.0882C34.0604 63.1159 34.0128 64.1274 34.0231 65.1119C34.0375 66.4703 34.6537 67.7372 35.7136 68.588C36.7745 69.4391 38.1461 69.7667 39.4768 69.4864L48.503 67.5854C49.8336 67.3052 50.9566 66.4523 51.5839 65.2454C52.2108 64.0394 52.2635 62.6315 51.7288 61.3827C51.3412 60.4778 50.8896 59.5712 50.3805 58.6724C51.0824 58.7053 51.7367 58.6613 52.3299 58.5365C53.7475 58.2379 54.7481 57.4636 55.1473 56.3564C55.8012 54.5427 54.6847 52.4292 53.5124 50.863C53.7659 49.767 53.929 48.5131 53.7694 47.3797C56.185 44.5846 58.0267 41.091 59.2433 36.9836C60.3133 33.3709 60.7019 29.9119 60.8363 27.5455C61.5147 26.7578 61.9935 25.7845 62.1962 24.7025C62.6063 22.5118 61.8139 20.3849 60.1135 19.0081ZM37.8072 54.1669C37.5739 53.0483 38.3171 51.9101 39.4354 51.6746C39.4354 51.6746 41.3555 51.2702 41.3583 51.2696C42.4772 51.0587 43.6158 51.7715 43.8529 52.8974C44.0557 53.8609 43.5087 54.8624 42.635 55.2588C42.5052 55.3177 42.3682 55.3633 42.2253 55.3934L40.3038 55.798C39.1926 56.0321 38.0453 55.2865 37.8088 54.1742C37.8085 54.1729 37.8081 54.1718 37.8079 54.1706C37.8076 54.1693 37.8075 54.1681 37.8072 54.1669ZM31.9441 60.9359C31.1561 61.1018 30.5727 60.9929 30.2101 60.6122C29.5588 59.9285 29.501 58.3305 30.0516 56.2276C30.1255 55.9455 30.0622 55.6449 29.8808 55.4166C28.9553 54.2513 28.3864 53.1876 28.222 52.3476C28.1086 51.5123 28.4319 50.7682 29.2646 50.4717C29.2716 50.4692 29.2788 50.4669 29.2857 50.4646C30.6849 49.9786 33.3165 50.2632 36.4559 51.7276C36.2607 52.0591 36.1161 52.417 36.0245 52.789C36.0124 52.8381 35.9345 53.2457 35.9396 53.246C34.6596 53.1772 32.8577 53.2659 30.9752 53.9526C30.4943 54.128 30.2469 54.66 30.4222 55.1407C30.5976 55.6216 31.1289 55.869 31.6103 55.6937C33.3716 55.0512 35.0574 55.027 36.1581 55.1182C36.2945 55.4853 36.486 55.8339 36.7255 56.1438C36.7281 56.1471 36.7305 56.1505 36.733 56.1536C36.9671 56.4572 37.2439 56.7266 37.5564 56.9513C36.6623 57.973 35.721 58.8523 34.7951 59.5267C34.7851 59.534 34.7761 59.5421 34.7664 59.5497C33.3774 60.5484 32.353 60.8498 31.9441 60.9359ZM49.9394 64.3907C49.5691 65.103 48.9065 65.6064 48.1211 65.7718L39.0949 67.6728C38.3094 67.8382 37.5 67.6449 36.8738 67.1423C36.2485 66.6404 35.8849 65.8932 35.8764 65.0921C35.8617 63.7094 35.9691 62.2661 36.1957 60.7968C36.7282 60.3873 37.261 59.9221 37.7878 59.4063C38.3378 58.8677 38.8572 58.2982 39.3486 57.7058C39.3597 57.6925 39.3708 57.6799 39.3818 57.6664C39.3881 57.6673 39.3944 57.6672 39.4006 57.6679C39.8272 57.7168 40.265 57.7003 40.6857 57.6117C40.6857 57.6117 42.6071 57.207 42.6072 57.207C43.029 57.1181 43.4339 56.9585 43.8053 56.7405C43.8109 56.7372 43.8168 56.7345 43.8224 56.7312C43.8379 56.739 43.8533 56.746 43.8688 56.7539C44.5512 57.0958 45.2652 57.4122 45.9861 57.6815C46.675 57.9404 47.349 58.1508 48.0005 58.3105C48.8005 59.5639 49.4808 60.8413 50.0251 62.1122C50.3404 62.8487 50.3093 63.6791 49.9394 64.3907ZM53.4038 55.7278C53.2256 56.2222 52.7359 56.557 51.9475 56.7231C50.8969 56.9444 49.8075 56.8098 48.7699 56.5838C47.6507 56.3401 46.4347 55.9152 45.2044 55.3409C45.4001 55.0087 45.5449 54.65 45.6365 54.2772C45.7278 53.9059 45.7678 53.493 45.7445 53.0994C46.7148 52.572 48.2673 51.9141 50.1381 51.7916C50.6486 51.758 51.0357 51.3171 51.0022 50.8064C50.9688 50.2957 50.5277 49.9088 50.017 49.9422C48.0173 50.0731 46.3328 50.7189 45.1894 51.298C45.1922 51.2965 44.951 50.9452 44.9284 50.9155C44.6943 50.6115 44.4173 50.3419 44.1046 50.1169C46.2164 47.7049 48.3381 46.3924 49.813 46.1156C49.8145 46.1153 49.8158 46.1152 49.8173 46.1149C50.8235 45.9051 51.6501 46.3078 51.8887 47.3613C52.0779 48.1964 51.9865 49.3999 51.6093 50.8405C51.5354 51.1227 51.5987 51.4232 51.7801 51.6516C53.1321 53.3538 53.724 54.8396 53.4038 55.7278ZM20.7839 16.0491C21.0531 15.7512 21.0999 15.3139 20.8998 14.9657C20.3697 14.0437 20.3086 13.0202 20.7277 12.0836C21.1557 11.127 22.0402 10.4024 23.0362 10.1927C23.6888 10.0552 24.3505 10.1335 25.003 10.4256C25.3694 10.5896 25.7998 10.4989 26.069 10.2011C26.5484 9.67065 27.1225 9.33205 27.775 9.19462C28.7708 8.98489 29.8723 9.29118 30.6499 9.99388C31.4055 10.6767 31.7611 11.6909 31.6551 12.7007C31.6141 13.0927 31.8377 13.4842 32.1981 13.6451C33.7776 14.3519 34.4867 16.1579 33.8793 17.7685C33.8774 17.7735 33.8753 17.7784 33.8734 17.7832C33.7811 17.7941 33.4119 17.854 33.3199 17.8734C30.9781 18.3666 29.2448 20.108 28.756 22.3936C28.0826 22.6078 27.4717 22.9283 26.9303 23.3512C26.4117 23.2456 25.9393 23.0143 25.5408 22.6701C25.5403 22.6682 25.5396 22.6663 25.539 22.6643C24.8317 20.214 22.4962 18.4811 19.9472 18.4158C19.882 17.5619 20.1716 16.7264 20.7839 16.0491ZM25.266 30.6276C25.5232 31.1576 25.8655 31.6572 26.2749 32.0873C26.2735 32.0885 26.2723 32.0899 26.2708 32.0911C26.2664 32.0948 26.2618 32.0983 26.2574 32.1021C25.8878 32.419 25.4572 32.6641 25.003 32.8375C24.628 32.9807 24.3877 33.3491 24.408 33.7502C24.5033 35.6358 23.2424 37.3736 21.4403 37.9084C19.9809 38.3414 18.3482 37.8988 17.3121 36.7815C16.965 36.4073 16.6135 36.0399 16.0498 36.2553C12.398 37.6498 9.01629 33.4245 11.1395 30.1682C11.3588 29.8319 11.3365 29.3926 11.0846 29.0803C9.20729 26.7531 10.4536 23.0807 13.4099 22.4581C14.0373 22.3259 14.6921 22.3498 15.3562 22.529C15.7438 22.6336 16.1547 22.4768 16.3738 22.1406C18.4937 18.8884 23.7281 20.2974 23.9244 24.1788C23.9447 24.5798 24.2208 24.9221 24.6084 25.0267C24.8629 25.0955 25.1055 25.1838 25.3349 25.291C24.4987 26.9357 24.4592 28.9648 25.266 30.6276ZM42.9178 28.7879C42.9169 28.7889 42.9162 28.7899 42.9153 28.7909C42.646 29.0887 42.5994 29.526 42.7993 29.8741C44.1559 32.2342 42.7745 35.343 40.0995 35.9061C39.2626 36.0823 38.3896 35.9607 37.6126 35.6131C37.2497 35.4507 36.813 35.5428 36.5466 35.8376C35.9742 36.4714 35.2287 36.932 34.3892 37.1088C31.756 37.6634 29.2011 35.3359 29.4857 32.6781C29.5182 32.3746 29.3922 32.0672 29.1591 31.8717C28.8643 31.6244 28.458 31.5016 28.1436 31.2714C26.1122 29.7834 26.0572 26.7207 27.8608 25.0359C28.38 24.5508 29.0291 24.1972 29.7657 24.0421C30.1586 23.9593 30.4535 23.633 30.4962 23.2338C30.7279 21.068 32.3039 19.9819 33.7014 19.6876C35.4077 19.3282 37.1969 20.1296 38.0656 21.6395C38.2657 21.9876 38.6672 22.1673 39.06 22.0846C41.1536 21.6436 43.2624 22.9673 43.8332 25.0154C43.8356 25.0239 43.8381 25.0325 43.8405 25.0411C44.2047 26.3656 43.831 27.7747 42.9178 28.7879ZM42.3724 19.1208C42.3725 19.1221 42.3727 19.1235 42.3729 19.1248C42.147 19.6006 41.8081 20.0028 41.3761 20.3085C40.7103 20.1399 40.0217 20.0933 39.3193 20.1687C39.0538 19.8015 38.746 19.464 38.4051 19.1656C37.7923 18.6285 37.0619 18.2246 36.282 17.9887C36.2415 17.9765 35.7965 17.853 35.7936 17.8641C35.7955 17.8564 35.7968 17.8487 35.7987 17.841C35.9098 17.4011 35.9627 16.9454 35.9562 16.4917C36.8095 17.4365 38.1284 17.9169 39.4614 17.6361C41.4545 17.2164 42.7344 15.2534 42.3147 13.2603C41.895 11.2674 39.932 9.98744 37.9389 10.4072C36.3358 10.7448 35.1948 12.0812 35.028 13.6284C34.8899 13.4354 34.7385 13.2521 34.5732 13.0807C34.2646 12.7603 33.9101 12.4807 33.5286 12.2518C33.5284 12.2374 33.5269 12.2235 33.5265 12.2092C33.5165 11.7725 33.4506 11.3349 33.3296 10.9151C33.183 10.4067 32.9452 9.90139 32.6418 9.46717C33.0857 8.57362 33.9291 7.89862 34.8935 7.69549C35.546 7.55808 36.2076 7.63642 36.8601 7.92831C37.2265 8.09232 37.6569 8.00155 37.9262 7.70379C38.4054 7.17341 38.9795 6.83481 39.632 6.69738C40.6278 6.48765 41.7293 6.79394 42.5069 7.49664C43.2683 8.1847 43.6252 9.14596 43.5121 10.2033C43.4694 10.6025 43.6886 10.9838 44.0551 11.1477C44.8886 11.5207 45.4907 12.1684 45.7753 12.9758C44.6927 13.4866 43.8119 14.2907 43.2106 15.2599C43.2028 15.2721 43.1949 15.2843 43.1873 15.2966C42.4858 16.4298 42.1975 17.8008 42.3724 19.1208ZM36.8992 14.401C36.69 13.4081 37.3278 12.4301 38.3207 12.221C39.3137 12.0118 40.2918 12.6496 40.5009 13.6425C40.71 14.6355 40.0723 15.6135 39.0793 15.8227C38.0863 16.0317 37.1083 15.394 36.8992 14.401ZM60.3744 24.3613C60.0916 25.8708 58.9952 27.1532 57.505 27.572C57.5029 27.5725 57.5008 27.5731 57.4987 27.5737C57.1636 27.6639 56.8283 27.6977 56.4845 27.7349C56.1061 27.7757 55.7887 28.0417 55.6887 28.4121C55.4927 29.1383 55.1171 29.8182 54.5713 30.3397C54.5681 30.3429 54.5647 30.346 54.5614 30.3491C52.6171 32.1595 49.289 31.6331 48.075 29.2512C48.0014 29.1067 47.9357 28.9583 47.8779 28.8068C47.7373 28.4385 47.3628 28.1918 46.9654 28.2119C46.9021 28.2151 45.4721 28.1133 45.4997 28.0366C46.067 26.4606 45.8905 24.7041 45.0989 23.2372C45.0963 23.2323 45.0936 23.2276 45.091 23.2228C44.7189 22.5427 44.2187 21.9313 43.6182 21.4404C43.7848 21.2497 43.9712 21.0709 44.1764 20.9053C44.4888 20.6532 44.6034 20.2286 44.4602 19.8536C43.5706 17.5231 45.0276 14.8569 47.4952 14.3372C48.2272 14.183 49.3508 14.163 50.5471 14.9432C50.8835 15.1625 51.3228 15.1404 51.6353 14.8883C52.1706 14.4565 52.7601 14.1704 53.3875 14.0383C56.3458 13.4152 58.9648 16.2758 58.1864 19.1599C58.0818 19.5475 58.2387 19.9584 58.5749 20.1776C60.0163 21.1176 60.689 22.6814 60.3744 24.3613Z" fill="#8BB710"/>
</g>
<defs>
<clipPath id="clip0">
<rect width="63.2626" height="63.2626" fill="white" transform="translate(0 13.1503) rotate(-11.8934)"/>
</clipPath>
</defs>
</svg>
